<?xml version="1.0" encoding="utf-8"?>
<!-- Generator: Adobe Illustrator 26.1.0, SVG Export Plug-In . SVG Version: 6.00 Build 0)  -->
<svg version="1.1" id="Слой_1" xmlns="http://www.w3.org/2000/svg" xmlns:xlink="http://www.w3.org/1999/xlink" x="0px" y="0px"
	 viewBox="0 0 1830 470" style="enable-background:new 0 0 1830 470;" xml:space="preserve">

<g>
	<g>
		<path class="st0" d="M603.64,34.3c28.37,0,48.05,20.92,48.05,46.46c0,17.73-9.22,32.27-23.94,39.72l28.01,48.59h-39.19l-25-43.09
			h-7.63v43.09h-33.69V34.3H603.64z M583.95,99.73h17.91c11.17,0,16.14-11.35,16.14-18.97c0-7.27-4.79-20.21-16.14-20.21h-17.91
			V99.73z"/>
		<path class="st0" d="M677.03,101.68c0-38.12,31.03-69.15,69.15-69.15c38.12,0,69.16,31.03,69.16,69.15
			c0,38.13-31.03,69.16-69.16,69.16C708.06,170.84,677.03,139.81,677.03,101.68z M746.18,137.15c19.51,0,35.46-15.96,35.46-35.46
			c0-19.5-15.96-35.46-35.46-35.46c-19.5,0-35.46,15.96-35.46,35.46C710.72,121.19,726.68,137.15,746.18,137.15z"/>
		<path class="st0" d="M841.91,101.68c0-38.12,31.03-69.15,69.15-69.15c20.92,0,39.54,9.22,52.13,23.76l-23.93,23.94
			c-6.38-8.51-16.67-14.01-28.2-14.01c-19.5,0-35.46,15.96-35.46,35.46c0,19.51,15.96,35.46,35.46,35.46
			c11.53,0,21.81-5.67,28.2-14.01l23.93,23.94c-12.59,14.54-31.21,23.76-52.13,23.76C872.94,170.84,841.91,139.81,841.91,101.68z"/>
		<path class="st0" d="M989.76,169.06V34.3h33.69v53.02l47.52-53.02h43.8l-57.1,64.37l57.1,70.4h-41.85l-37.77-45.04l-11.7,12.77
			v32.27H989.76z"/>
		<path class="st0" d="M1141.35,169.06V34.3h100.19v29.79h-66.49v24.29h53.02v26.6h-53.02v24.29h66.49v29.79H1141.35z"/>
		<path class="st0" d="M1364.93,34.3v29.79h-36v104.97h-33.69V64.09h-36V34.3H1364.93z"/>
		<path class="st0" d="M1425.91,34.3l22.34,68.8l19.68-68.8h23.41l20.39,68.8l21.99-68.8h34.75l-42.91,134.76h-25l-20.75-67.56
			l-20.57,67.56h-24.82L1391.51,34.3H1425.91z"/>
		<path class="st0" d="M1595.04,169.06V34.3h100.19v29.79h-66.49v24.29h53.02v26.6h-53.02v24.29h66.49v29.79H1595.04z"/>
		<path class="st0" d="M1721.8,169.06V34.3h48.41c31.03,0,45.39,17.73,45.39,39.54c0,3.9-3.9,19.5-19.15,20.21
			c22.7,0.71,32.45,19.86,32.45,30.5c0,30.5-20.75,44.51-48.94,44.51H1721.8z M1770.74,85.55c9.4,0,11.17-9.04,11.17-12.59
			c0-6.03-5.85-12.41-11.35-12.41h-15.07v25H1770.74z M1755.49,142.82h24.12c7.62,0,15.6-6.92,15.6-17.91
			c0-6.74-6.92-17.2-16.32-17.2h-23.41V142.82z"/>
	</g>
	<g>
		<g>
			<g>
				<path class="st0" d="M448.38,227.16l-8.48,8.48c-4.19,4.19-6.55,9.88-6.55,15.8v171.01c0,7.23-5.86,13.08-13.08,13.08H249.26
					c-5.93,0-11.61,2.35-15.8,6.55l-8.48,8.48c-4.79,4.79-1.4,12.97,5.37,12.97h217.92c7.23,0,13.08-5.86,13.08-13.08V232.53
					C461.35,225.76,453.17,222.37,448.38,227.16z"/>
				<path class="st0" d="M30.8,249.9c4.19-4.19,6.55-9.88,6.55-15.8l0-181.48c0-7.23,5.86-13.08,13.08-13.08h181.48
					c5.93,0,11.61-2.35,15.8-6.55l8.48-8.48c4.79-4.79,1.4-12.97-5.37-12.97H22.43c-7.23,0-13.08,5.86-13.08,13.08l0,228.39
					c0,6.77,8.18,10.16,12.97,5.37L30.8,249.9z"/>
			</g>
		</g>
		<g>
			<path class="st0" d="M143.51,285.26l-2.13-2.12c-3.48-3.47-9.13-3.47-12.61,0l-99.59,99.17c-3.48,3.47-3.48,9.09,0,12.56
				l2.13,2.12c3.48,3.47,9.13,3.47,12.61,0l99.59-99.17C146.99,294.35,146.99,288.73,143.51,285.26z"/>
			<path class="st0" d="M151.05,322.87l-2.13-2.12c-3.48-3.47-9.13-3.47-12.61,0L5.71,450.8c-3.48,3.47-3.48,9.09,0,12.56l2.13,2.12
				c3.48,3.47,9.13,3.47,12.61,0l130.61-130.05C154.53,331.96,154.53,326.34,151.05,322.87z"/>
			<path class="st0" d="M189.04,330.34l-2.13-2.12c-3.48-3.47-9.13-3.47-12.61,0l-99.59,99.17c-3.48,3.47-3.48,9.09,0,12.56
				l2.13,2.12c3.48,3.47,9.13,3.47,12.61,0l99.59-99.17C192.52,339.43,192.52,333.8,189.04,330.34z"/>
			<path class="st0" d="M273.15,320.32l3.48-44.53l42.18-29.22c71.47-49.6,123.59-123.86,142.45-206.33
				c0.45-2.1,0.93-4.24,1.38-6.35l1.76-8.45c0.93-4.45,1.66-9.8,1.21-14.45c-0.24-2.59-2.35-4.76-4.93-4.93
				c-4.66-0.45-10,0.28-14.52,1.21l-8.38,1.76c-2.17,0.45-4.24,0.86-6.35,1.38C348.93,29.24,274.7,81.39,225.1,152.86l-29.28,42.18
				l-44.46,3.48c-4.86,0.66-9.14,3.97-11.14,8.52l-11.66,26.84c-2.62,6.07-0.48,12.69,5.1,15.38l22.01,3.59l-3.62,5.35
				c-2.66,3.76-2.41,8.62,0.52,11.62l24.66,24.59l24.63,24.7c3,2.93,7.8,3.17,11.62,0.52l5.31-3.66l3.59,22.08
				c2.66,5.48,9.35,7.69,15.42,5.07l26.84-11.66C269.18,329.46,272.49,325.19,273.15,320.32z M299.48,171.94
				c-15.69-15.69-15.69-41.12,0-56.81c15.69-15.69,41.12-15.69,56.81,0s15.69,41.12,0,56.81S315.17,187.63,299.48,171.94z"/>
		</g>
	</g>
	<path class="st0" d="M914.19,334.5c-18.23,0-33.14,14.92-33.14,33.16c0,18.23,14.91,33.16,33.14,33.16
		c18.25,0,33.16-14.93,33.16-33.16C947.35,349.41,932.45,334.5,914.19,334.5z"/>
	<path class="st0" d="M779.12,329.19h-16.75v36.64h16.75c10.44,0,15.08-10.61,15.08-17.73C794.21,341.3,789.73,329.19,779.12,329.19
		z"/>
	<path class="st0" d="M1018.38,264.56H561c-6.02,0-10.73,4.71-10.73,10.73v177.24c0,6.02,4.71,11,10.73,11h457.38
		c6.02,0,10.73-4.97,10.73-11V275.29C1029.11,269.27,1024.4,264.56,1018.38,264.56z M660.95,390.37h-18.41v40.28h-31.5v-126h49.91
		c26.53,0,44.93,19.56,44.93,43.44C705.88,372.46,687.48,390.37,660.95,390.37z M792.89,430.65l-23.38-40.28h-7.13v40.28h-31.5v-126
		h49.91c26.53,0,44.92,19.56,44.92,43.44c0,16.57-8.62,30.17-22.37,37.14l26.18,45.42H792.89z M914.19,432.32
		c-35.64,0-64.66-29.02-64.66-64.66S878.55,303,914.19,303c35.67,0,64.66,29.02,64.66,64.66S949.86,432.32,914.19,432.32z"/>
	<path class="st0" d="M659.29,329.19h-16.75v36.64h16.75c10.44,0,15.08-10.61,15.08-17.73C674.37,341.3,669.9,329.19,659.29,329.19z
		"/>
</g>
</svg>
