<?xml version="1.0" encoding="utf-8"?>
<!-- Generator: Adobe Illustrator 26.1.0, SVG Export Plug-In . SVG Version: 6.00 Build 0)  -->
<svg version="1.1" id="Слой_1" xmlns="http://www.w3.org/2000/svg" xmlns:xlink="http://www.w3.org/1999/xlink" x="0px" y="0px"
	 viewBox="0 0 1080 1080" style="enable-background:new 0 0 1080 1080;" xml:space="preserve">

<g>
	<g>
		<g>
			<path class="st0" d="M1033,517.3l-19.5,19.5c-9.7,9.7-15.1,22.8-15.1,36.4v394c0,16.6-13.5,30.1-30.1,30.1h-394
				c-13.7,0-26.8,5.4-36.4,15.1l-19.5,19.5c-11,11-3.2,29.9,12.4,29.9h502.1c16.6,0,30.1-13.5,30.1-30.1V529.7
				C1062.8,514.1,1044,506.3,1033,517.3z"/>
			<path class="st0" d="M70.8,569.7c9.7-9.7,15.1-22.8,15.1-36.4l0-418.1c0-16.6,13.5-30.1,30.1-30.1h418.1
				c13.7,0,26.8-5.4,36.4-15.1l19.5-19.5c11-11,3.2-29.9-12.4-29.9H51.6c-16.6,0-30.1,13.5-30.1,30.1l0,526.2
				c0,15.6,18.9,23.4,29.9,12.4L70.8,569.7z"/>
		</g>
	</g>
	<g>
		<path class="st0" d="M330.5,651.2l-4.9-4.9c-8-8-21-8-29.1,0L67.1,874.8c-8,8-8,20.9,0,28.9l4.9,4.9c8,8,21,8,29.1,0l229.5-228.5
			C338.5,672.1,338.5,659.2,330.5,651.2z"/>
		<path class="st0" d="M347.9,737.9L343,733c-8-8-21-8-29.1,0L13,1032.6c-8,8-8,20.9,0,28.9l4.9,4.9c8,8,21,8,29.1,0l300.9-299.6
			C355.9,758.8,355.9,745.8,347.9,737.9z"/>
		<path class="st0" d="M435.4,755.1l-4.9-4.9c-8-8-21-8-29.1,0L172,978.7c-8,8-8,20.9,0,28.9l4.9,4.9c8,8,21,8,29.1,0L435.4,784
			C443.5,776,443.5,763,435.4,755.1z"/>
		<path class="st0" d="M629.2,732l8-102.6l97.2-67.3c164.7-114.3,284.8-285.4,328.2-475.4c1-4.8,2.1-9.8,3.2-14.6l4.1-19.5
			c2.1-10.3,3.8-22.6,2.8-33.3c-0.6-6-5.4-11-11.4-11.4c-10.7-1-23,0.6-33.5,2.8l-19.3,4.1c-5,1-9.8,2-14.6,3.2
			C803.8,61.3,632.8,181.5,518.5,346.1L451,443.3l-102.4,8c-11.2,1.5-21.1,9.1-25.7,19.6l-26.9,61.8c-6,14-1.1,29.2,11.8,35.4
			l50.7,8.3l-8.3,12.3c-6.1,8.7-5.6,19.9,1.2,26.8l56.8,56.7l56.7,56.9c6.9,6.8,18,7.3,26.8,1.2L504,722l8.3,50.9
			c6.1,12.6,21.5,17.7,35.5,11.7l61.8-26.9C620.1,753,627.7,743.2,629.2,732z M689.9,390.1c-36.1-36.1-36.1-94.8,0-130.9
			s94.8-36.1,130.9,0s36.1,94.8,0,130.9S726,426.2,689.9,390.1z"/>
	</g>
</g>
</svg>
