<svg width="50" height="50" fill="none" version="1.1" viewBox="0 0 50 50" xml:space="preserve" enable-background="new 0 0 70 70" xmlns="http://www.w3.org/2000/svg" preserveAspectRatio="xMidYMid meet" >

    <g id="viteIcon">
        <defs>
            <linearGradient id="IconifyId1813088fe1fbc01fb466" x1="-.828%" x2="57.636%" y1="7.652%" y2="78.411%">
                <stop offset="0%" stop-color="#41D1FF"/><stop offset="100%" stop-color="#BD34FE"/>
            </linearGradient>
            <linearGradient id="IconifyId1813088fe1fbc01fb467" x1="43.376%" x2="50.316%" y1="2.242%" y2="89.03%">
                <stop offset="0%" stop-color="#FFEA83"/>
                <stop offset="8.333%" stop-color="#FFDD35"/>
                <stop offset="100%" stop-color="#FFA800"/>
            </linearGradient>
        </defs>
        <path fill="url(#IconifyId1813088fe1fbc01fb466)" d="M255.153 37.938L134.897 252.976c-2.483 4.44-8.862 4.466-11.382.048L.875 37.958c-2.746-4.814 1.371-10.646 6.827-9.67l120.385 21.517a6.537 6.537 0 0 0 2.322-.004l117.867-21.483c5.438-.991 9.574 4.796 6.877 9.62Z"/>
        <path fill="url(#IconifyId1813088fe1fbc01fb467)" d="M185.432.063L96.44 17.501a3.268 3.268 0 0 0-2.634 3.014l-5.474 92.456a3.268 3.268 0 0 0 3.997 3.378l24.777-5.718c2.318-.535 4.413 1.507 3.936 3.838l-7.361 36.047c-.495 2.426 1.782 4.5 4.151 3.78l15.304-4.649c2.372-.72 4.652 1.36 4.15 3.788l-11.698 56.621c-.732 3.542 3.979 5.473 5.943 2.437l1.313-2.028l72.516-144.72c1.215-2.423-.88-5.186-3.54-4.672l-25.505 4.922c-2.396.462-4.435-1.77-3.759-4.114l16.646-57.705c.677-2.35-1.37-4.583-3.769-4.113Z"/>
    </g>

    <g id="react">
        <path fill="#00D8FF" d="M210.483 73.824a171.49 171.49 0 0 0-8.24-2.597c.465-1.9.893-3.777 1.273-5.621c6.238-30.281 2.16-54.676-11.769-62.708c-13.355-7.7-35.196.329-57.254 19.526a171.23 171.23 0 0 0-6.375 5.848a155.866 155.866 0 0 0-4.241-3.917C100.759 3.829 77.587-4.822 63.673 3.233C50.33 10.957 46.379 33.89 51.995 62.588a170.974 170.974 0 0 0 1.892 8.48c-3.28.932-6.445 1.924-9.474 2.98C17.309 83.498 0 98.307 0 113.668c0 15.865 18.582 31.778 46.812 41.427a145.52 145.52 0 0 0 6.921 2.165a167.467 167.467 0 0 0-2.01 9.138c-5.354 28.2-1.173 50.591 12.134 58.266c13.744 7.926 36.812-.22 59.273-19.855a145.567 145.567 0 0 0 5.342-4.923a168.064 168.064 0 0 0 6.92 6.314c21.758 18.722 43.246 26.282 56.54 18.586c13.731-7.949 18.194-32.003 12.4-61.268a145.016 145.016 0 0 0-1.535-6.842c1.62-.48 3.21-.974 4.76-1.488c29.348-9.723 48.443-25.443 48.443-41.52c0-15.417-17.868-30.326-45.517-39.844Zm-6.365 70.984c-1.4.463-2.836.91-4.3 1.345c-3.24-10.257-7.612-21.163-12.963-32.432c5.106-11 9.31-21.767 12.459-31.957c2.619.758 5.16 1.557 7.61 2.4c23.69 8.156 38.14 20.213 38.14 29.504c0 9.896-15.606 22.743-40.946 31.14Zm-10.514 20.834c2.562 12.94 2.927 24.64 1.23 33.787c-1.524 8.219-4.59 13.698-8.382 15.893c-8.067 4.67-25.32-1.4-43.927-17.412a156.726 156.726 0 0 1-6.437-5.87c7.214-7.889 14.423-17.06 21.459-27.246c12.376-1.098 24.068-2.894 34.671-5.345a134.17 134.17 0 0 1 1.386 6.193ZM87.276 214.515c-7.882 2.783-14.16 2.863-17.955.675c-8.075-4.657-11.432-22.636-6.853-46.752a156.923 156.923 0 0 1 1.869-8.499c10.486 2.32 22.093 3.988 34.498 4.994c7.084 9.967 14.501 19.128 21.976 27.15a134.668 134.668 0 0 1-4.877 4.492c-9.933 8.682-19.886 14.842-28.658 17.94ZM50.35 144.747c-12.483-4.267-22.792-9.812-29.858-15.863c-6.35-5.437-9.555-10.836-9.555-15.216c0-9.322 13.897-21.212 37.076-29.293c2.813-.98 5.757-1.905 8.812-2.773c3.204 10.42 7.406 21.315 12.477 32.332c-5.137 11.18-9.399 22.249-12.634 32.792a134.718 134.718 0 0 1-6.318-1.979Zm12.378-84.26c-4.811-24.587-1.616-43.134 6.425-47.789c8.564-4.958 27.502 2.111 47.463 19.835a144.318 144.318 0 0 1 3.841 3.545c-7.438 7.987-14.787 17.08-21.808 26.988c-12.04 1.116-23.565 2.908-34.161 5.309a160.342 160.342 0 0 1-1.76-7.887Zm110.427 27.268a347.8 347.8 0 0 0-7.785-12.803c8.168 1.033 15.994 2.404 23.343 4.08c-2.206 7.072-4.956 14.465-8.193 22.045a381.151 381.151 0 0 0-7.365-13.322Zm-45.032-43.861c5.044 5.465 10.096 11.566 15.065 18.186a322.04 322.04 0 0 0-30.257-.006c4.974-6.559 10.069-12.652 15.192-18.18ZM82.802 87.83a323.167 323.167 0 0 0-7.227 13.238c-3.184-7.553-5.909-14.98-8.134-22.152c7.304-1.634 15.093-2.97 23.209-3.984a321.524 321.524 0 0 0-7.848 12.897Zm8.081 65.352c-8.385-.936-16.291-2.203-23.593-3.793c2.26-7.3 5.045-14.885 8.298-22.6a321.187 321.187 0 0 0 7.257 13.246c2.594 4.48 5.28 8.868 8.038 13.147Zm37.542 31.03c-5.184-5.592-10.354-11.779-15.403-18.433c4.902.192 9.899.29 14.978.29c5.218 0 10.376-.117 15.453-.343c-4.985 6.774-10.018 12.97-15.028 18.486Zm52.198-57.817c3.422 7.8 6.306 15.345 8.596 22.52c-7.422 1.694-15.436 3.058-23.88 4.071a382.417 382.417 0 0 0 7.859-13.026a347.403 347.403 0 0 0 7.425-13.565Zm-16.898 8.101a358.557 358.557 0 0 1-12.281 19.815a329.4 329.4 0 0 1-23.444.823c-7.967 0-15.716-.248-23.178-.732a310.202 310.202 0 0 1-12.513-19.846h.001a307.41 307.41 0 0 1-10.923-20.627a310.278 310.278 0 0 1 10.89-20.637l-.001.001a307.318 307.318 0 0 1 12.413-19.761c7.613-.576 15.42-.876 23.31-.876H128c7.926 0 15.743.303 23.354.883a329.357 329.357 0 0 1 12.335 19.695a358.489 358.489 0 0 1 11.036 20.54a329.472 329.472 0 0 1-11 20.722Zm22.56-122.124c8.572 4.944 11.906 24.881 6.52 51.026c-.344 1.668-.73 3.367-1.15 5.09c-10.622-2.452-22.155-4.275-34.23-5.408c-7.034-10.017-14.323-19.124-21.64-27.008a160.789 160.789 0 0 1 5.888-5.4c18.9-16.447 36.564-22.941 44.612-18.3ZM128 90.808c12.625 0 22.86 10.235 22.86 22.86s-10.235 22.86-22.86 22.86s-22.86-10.235-22.86-22.86s10.235-22.86 22.86-22.86Z"/>
    </g>

    <g id="vk">
       <path d="M347.506,240.442c-7.91-9.495-16.899-18.005-25.592-26.235c-3.091-2.927-6.287-5.953-9.368-8.962 c-8.845-8.648-9.167-11.897-2.164-21.72c4.845-6.771,9.982-13.551,14.95-20.108c4.506-5.949,9.166-12.101,13.632-18.273l0.917-1.269 c8.536-11.811,17.364-24.024,22.062-38.757c1.22-3.887,2.501-9.607-0.428-14.39c-2.927-4.779-8.605-6.237-12.622-6.918 c-1.987-0.337-3.96-0.383-5.791-0.383l-55.901-0.04l-0.462-0.004c-8.452,0-14.148,3.983-17.412,12.178 c-3.116,7.83-6.539,16.168-10.445,24.096c-7.773,15.787-17.645,33.97-31.93,49.135l-0.604,0.645 c-1.687,1.813-3.598,3.866-4.995,3.866c-0.214,0-0.447-0.041-0.711-0.124c-2.959-1.153-4.945-8.316-4.855-11.648 c0.001-0.046,0.002-0.092,0.002-0.138l-0.039-64.61c0-0.224-0.016-0.446-0.045-0.668c-1.422-10.503-4.572-17.041-16.474-19.372 c-0.316-0.063-0.639-0.094-0.961-0.094h-58.126c-9.47,0-14.688,3.849-19.593,9.61c-1.324,1.54-4.08,4.746-2.714,8.635 c1.386,3.947,5.885,4.791,7.35,5.065c7.272,1.384,11.371,5.832,12.532,13.604c2.027,13.496,2.276,27.901,0.784,45.334 c-0.416,4.845-1.239,8.587-2.595,11.784c-0.315,0.746-1.432,3.181-2.571,3.182c-0.362,0-1.409-0.142-3.316-1.456 c-4.509-3.089-7.808-7.497-11.654-12.942c-13.084-18.491-24.065-38.861-33.575-62.288c-3.527-8.624-10.114-13.452-18.556-13.594 c-9.276-0.141-17.686-0.209-25.707-0.209c-8.764,0-16.889,0.081-24.823,0.246C8.914,83.74,4.216,85.776,1.744,89.676 c-2.476,3.903-2.315,9.03,0.479,15.236c22.366,49.723,42.645,85.876,65.755,117.228c16.193,21.938,32.435,37.123,51.109,47.784 c19.674,11.255,41.722,16.727,67.402,16.727c2.911,0,5.921-0.071,8.956-0.213c14.922-0.727,20.458-6.128,21.158-20.657 c0.333-7.425,1.145-15.212,4.795-21.853c2.304-4.184,4.452-4.184,5.158-4.184c1.36,0,3.046,0.626,4.857,1.799 c3.248,2.12,6.033,4.96,8.316,7.441c2.149,2.357,4.274,4.738,6.401,7.12c4.59,5.141,9.336,10.456,14.294,15.497 c10.852,11.041,22.807,15.897,36.538,14.843h51.252c0.109,0,0.219-0.004,0.328-0.011c5.107-0.337,9.53-3.17,12.135-7.772 c3.227-5.701,3.162-12.974-0.174-19.46C356.718,251.867,351.808,245.601,347.506,240.442z"/>
    </g>

    <g id="telegram">
        <path d="M36.7527 0.38643L1.31463 14.2583C-0.111463 14.9043 -0.593806 16.1979 0.969943 16.9L10.0613 19.8328L32.0432 6.04268C33.2434 5.17696 34.4722 5.4078 33.4148 6.36015L14.5354 23.712L13.9424 31.0553C14.4917 32.1891 15.4974 32.1944 16.139 31.6308L21.3623 26.6139L30.308 33.4137C32.3857 34.6623 33.5163 33.8565 33.9633 31.568L39.8309 3.36528C40.4401 0.548323 39.4012 -0.692859 36.7527 0.38643Z"/>
    </g>

    <g id="webStorm">
        <g clip-path="url(#clip0_4372_13111)">
        <path d="M5.81836 48.0521L5.8201 59.9276C5.8201 62.1769 7.64352 63.9998 9.89283 63.9998H21.3994C22.5881 63.9998 23.718 63.4802 24.4918 62.5778L57.2016 24.4164C57.8341 23.678 58.182 22.7378 58.182 21.7656V9.89011C58.182 7.6408 56.3586 5.81738 54.1093 5.81738H42.6009C41.4122 5.81738 40.2823 6.33695 39.5085 7.23935L6.79872 45.4008C6.1657 46.1391 5.81836 47.0793 5.81836 48.0521Z" fill="#F0EB18"/>
            <path d="M5.81836 49.4806V59.9271C5.81836 62.1764 7.64178 63.9999 9.89109 63.9999H22.9837C23.1763 63.9999 23.3689 63.9859 23.5597 63.9591L60.5034 58.682C62.5101 58.3952 64.0002 56.6771 64.0002 54.65V38.977C64.0002 36.7271 62.1762 34.9037 59.9263 34.9043L41.3878 34.909C40.9503 34.909 40.5157 34.9794 40.1008 35.1178L8.60294 45.6173C6.9401 46.1718 5.81836 47.7282 5.81836 49.4812V49.4806Z" fill="url(#paint0_linear_4372_13111)"/>
            <path d="M0 4.07273V38.041C0 39.6701 0.971054 41.1427 2.46807 41.7844L39.9587 57.8525C40.4654 58.0695 41.0118 58.1818 41.5633 58.1818H59.9273C62.1766 58.1818 64 56.3584 64 54.1091V36.1431C64 35.3385 63.7614 34.5518 63.3146 33.8822L41.9113 1.81353C41.1561 0.681309 39.8854 0.00174545 38.5239 0.00174545L4.07273 0C1.82342 0 0 1.82342 0 4.07273Z" fill="url(#paint1_linear_4372_13111)"/>
            <path d="M52 12H12V52H52V12Z" fill="black"/>
            <path d="M18.8222 17.0078L21.2445 27.961L23.8277 17.0078H26.7857L29.4865 27.961L31.8337 17.0078H34.8027L31.1585 32.0122H27.8255L25.2964 21.1124L22.735 32.0122H19.4124L15.79 17.0078H18.8233H18.8222ZM41.123 32.27C40.0367 32.27 39.0721 32.0731 38.2292 31.6804C37.3933 31.2876 36.7358 30.737 36.257 30.0297C35.7856 29.3223 35.5428 28.5076 35.5284 27.5861H38.4652C38.4652 28.0213 38.5795 28.4048 38.808 28.7327C39.0365 29.0611 39.3546 29.3183 39.7617 29.5043C40.1687 29.6903 40.6367 29.7828 41.1655 29.7828C41.6943 29.7828 42.1157 29.7013 42.4946 29.5365C42.8805 29.3648 43.1767 29.1294 43.384 28.8291C43.5982 28.5288 43.7055 28.1861 43.7055 27.8002C43.7055 27.3219 43.5591 26.9252 43.2663 26.6106C42.9804 26.2959 42.5842 26.0789 42.0767 25.9566L39.4292 25.3669C38.715 25.2102 38.0932 24.9421 37.5644 24.5631C37.0356 24.1773 36.625 23.7019 36.3316 23.1375C36.0388 22.5737 35.8924 21.9369 35.8924 21.2296C35.8924 20.3724 36.114 19.6047 36.5567 18.9255C37 18.2394 37.6178 17.7077 38.4107 17.3288C39.2036 16.9429 40.1039 16.75 41.1115 16.75C42.1191 16.75 43.0441 16.936 43.8445 17.3075C44.6449 17.6784 45.2661 18.1969 45.7093 18.8617C46.1595 19.5197 46.388 20.2765 46.3955 21.1337H43.4696C43.4696 20.7691 43.3731 20.4436 43.1802 20.1582C42.9873 19.8648 42.7122 19.6397 42.3551 19.483C42.0049 19.3182 41.6013 19.2367 41.1442 19.2367C40.6872 19.2367 40.283 19.3159 39.9333 19.4727C39.5906 19.6225 39.3224 19.8372 39.1295 20.1157C38.9366 20.3879 38.8401 20.7054 38.8401 21.0694C38.8401 21.4833 38.9722 21.8261 39.2369 22.0983C39.5085 22.3704 39.8765 22.5633 40.341 22.677L42.892 23.2345C43.628 23.3844 44.2814 23.6697 44.8533 24.0917C45.432 24.5057 45.8822 25.0202 46.2037 25.6351C46.5252 26.242 46.686 26.9063 46.686 27.6285C46.686 28.5139 46.45 29.3114 45.9786 30.0188C45.5141 30.7192 44.8602 31.2687 44.0173 31.6695C43.1744 32.0702 42.2099 32.2695 41.1236 32.2695L41.123 32.27Z" fill="white"/>
            <path d="M33 44H17V47H33V44Z" fill="white"/>
        </g>
        <defs>
            <linearGradient id="paint0_linear_4372_13111" x1="7.62141" y1="64.7172" x2="61.2476" y2="39.8544" gradientUnits="userSpaceOnUse">
            <stop offset="0.22" stop-color="#F0EB18"/>
                <stop offset="0.59" stop-color="#00C4F4"/>
            </linearGradient>
            <linearGradient id="paint1_linear_4372_13111" x1="60.0186" y1="59.7777" x2="1.31316" y2="1.07287" gradientUnits="userSpaceOnUse">
            <stop offset="0.19" stop-color="#00C4F4"/>
                <stop offset="0.83" stop-color="#007DFE"/>
            </linearGradient>
            <clipPath id="clip0_4372_13111">
            <rect width="64" height="64" fill="white"/>
            </clipPath>
        </defs>
    </g>

    <g id="gitHub">
        <path xmlns="http://www.w3.org/2000/svg" fill-rule="evenodd" clip-rule="evenodd" d="M44 0C19.69 0 0 19.69 0 44C0 63.47 12.595 79.915 30.085 85.745C32.285 86.13 33.11 84.81 33.11 83.655C33.11 82.61 33.055 79.145 33.055 75.46C22 77.495 19.14 72.765 18.26 70.29C17.765 69.025 15.62 65.12 13.75 64.075C12.21 63.25 10.01 61.215 13.695 61.16C17.16 61.105 19.635 64.35 20.46 65.67C24.42 72.325 30.745 70.455 33.275 69.3C33.66 66.44 34.815 64.515 36.08 63.415C26.29 62.315 16.06 58.52 16.06 41.69C16.06 36.905 17.765 32.945 20.57 29.865C20.13 28.765 18.59 24.255 21.01 18.205C21.01 18.205 24.695 17.05 33.11 22.715C36.63 21.725 40.37 21.23 44.11 21.23C47.85 21.23 51.59 21.725 55.11 22.715C63.525 16.995 67.21 18.205 67.21 18.205C69.63 24.255 68.09 28.765 67.65 29.865C70.455 32.945 72.16 36.85 72.16 41.69C72.16 58.575 61.875 62.315 52.085 63.415C53.68 64.79 55.055 67.43 55.055 71.555C55.055 77.44 55 82.17 55 83.655C55 84.81 55.825 86.185 58.025 85.745C66.7597 82.796 74.3497 77.1822 79.7268 69.6937C85.1039 62.2052 87.9974 53.219 88 44C88 19.69 68.31 0 44 0Z"/>
    </g>

    <g id="gitSystem">
        <path fill="#F05133" d="M92.71 44.408 52.591 4.291c-2.31-2.311-6.057-2.311-8.369 0l-8.33 8.332L46.459 23.19c2.456-.83 5.272-.273 7.229 1.685 1.969 1.97 2.521 4.81 1.67 7.275l10.186 10.185c2.465-.85 5.307-.3 7.275 1.671 2.75 2.75 2.75 7.206 0 9.958-2.752 2.751-7.208 2.751-9.961 0-2.068-2.07-2.58-5.11-1.531-7.658l-9.5-9.499v24.997c.67.332 1.303.774 1.861 1.332 2.75 2.75 2.75 7.206 0 9.959-2.75 2.749-7.209 2.749-9.957 0-2.75-2.754-2.75-7.21 0-9.959.68-.679 1.467-1.193 2.307-1.537v-25.23c-.84-.344-1.625-.853-2.307-1.537-2.083-2.082-2.584-5.14-1.516-7.698L31.798 16.715 4.288 44.222c-2.311 2.313-2.311 6.06 0 8.371l40.121 40.118c2.31 2.311 6.056 2.311 8.369 0L92.71 52.779c2.311-2.311 2.311-6.06 0-8.371z"/>
    </g>

    <g id="vscode">
        <path d="M101.535 17.605L81.354 7.88899C80.2143 7.33948 78.9319 7.15814 77.6845 7.37011C76.4372 7.58208 75.2867 8.17686 74.3925 9.07199L8.32998 69.3C7.52845 70.0273 7.04865 71.0432 6.99614 72.1243C6.94363 73.2053 7.32271 74.2629 8.04998 75.0645C8.13748 75.159 8.22498 75.25 8.31948 75.334L13.713 80.234C14.4178 80.8754 15.3249 81.2497 16.277 81.2919C17.229 81.3341 18.1657 81.0416 18.9245 80.465L98.497 20.125C99.098 19.6689 99.8144 19.3897 100.566 19.3186C101.317 19.2476 102.073 19.3877 102.749 19.7231C103.424 20.0585 103.993 20.5758 104.391 21.217C104.789 21.8581 105 22.5975 105 23.352V23.1175C105 21.9656 104.675 20.8372 104.062 19.862C103.449 18.8868 102.573 18.1045 101.535 17.605Z" fill="#0065A9"/>
        <path d="M101.535 94.395L81.354 104.115C80.214 104.662 78.9319 104.843 77.6849 104.631C76.4379 104.419 75.2875 103.825 74.3925 102.932L8.32998 42.7C7.52845 41.9727 7.04865 40.9568 6.99614 39.8758C6.94363 38.7947 7.32271 37.7371 8.04998 36.9355C8.13748 36.841 8.22498 36.75 8.31948 36.666L13.713 31.766C14.4185 31.1219 15.3277 30.7459 16.2821 30.7037C17.2365 30.6615 18.1754 30.9557 18.935 31.535L98.497 91.875C99.098 92.3311 99.8144 92.6104 100.566 92.6814C101.317 92.7524 102.073 92.6123 102.749 92.2769C103.424 91.9415 103.993 91.4242 104.391 90.783C104.789 90.1419 105 89.4025 105 88.648V88.9C104.996 90.0488 104.669 91.1733 104.057 92.1451C103.444 93.1168 102.57 93.8965 101.535 94.395Z" fill="#007ACC"/>
        <path d="M81.354 104.114C80.214 104.662 78.9319 104.843 77.6849 104.631C76.4379 104.419 75.2875 103.825 74.3925 102.931C74.8951 103.428 75.5329 103.764 76.2261 103.899C76.9192 104.034 77.6368 103.962 78.289 103.691C78.9411 103.42 79.4988 102.963 79.8921 102.376C80.2854 101.79 80.4969 101.1 80.5 100.394V11.606C80.5006 10.8965 80.2906 10.2028 79.8966 9.61274C79.5026 9.02271 78.9423 8.56288 78.2868 8.29152C77.6312 8.02016 76.9099 7.94946 76.2141 8.0884C75.5184 8.22734 74.8795 8.56965 74.3785 9.07197C75.2728 8.17717 76.4231 7.58235 77.6702 7.3698C78.9174 7.15724 80.1997 7.33744 81.34 7.88547L101.517 17.5875C102.559 18.0845 103.438 18.8657 104.054 19.8411C104.67 20.8165 104.998 21.9463 105 23.1V88.9C105 90.0528 104.675 91.1822 104.061 92.1581C103.447 93.134 102.571 93.9167 101.531 94.416L81.354 104.114Z" fill="#1F9CF0"/>
    </g>

    <g id="discord">
        <path xmlns="http://www.w3.org/2000/svg" d="M21.1641 1.65906C19.543 0.878258 17.8325 0.320987 16.0751 0.00113909C16.0592 -0.00167518 16.0428 0.000755409 16.0283 0.00809674C16.0137 0.0154381 16.0017 0.0273296 15.9938 0.0421361C15.7735 0.452106 15.5298 0.988347 15.3595 1.40816C13.4651 1.10643 11.5383 1.10643 9.64391 1.40816C9.45393 0.940495 9.23901 0.484433 9.00017 0.0421361C8.99216 0.0274917 8.9801 0.0157372 8.9656 0.00841949C8.9511 0.00110175 8.93482 -0.00143631 8.91892 0.00113909C7.16113 0.319276 5.45021 0.876835 3.82991 1.65906C3.81605 1.66461 3.80445 1.67504 3.7971 1.68858C0.556508 6.77057 -0.332545 11.7279 0.103388 16.623C0.10495 16.6459 0.119013 16.6689 0.1362 16.6836C2.02325 18.1507 4.13396 19.2708 6.37832 19.9962C6.39417 20.0014 6.4112 20.0013 6.42693 19.9957C6.44267 19.99 6.45629 19.9793 6.46582 19.965C6.94707 19.2763 7.37519 18.5498 7.74393 17.7856C7.75162 17.7699 7.75425 17.752 7.75143 17.7345C7.74862 17.7171 7.74051 17.7011 7.72831 17.6889C7.72023 17.6809 7.71065 17.6747 7.70018 17.6708C7.027 17.3993 6.37503 17.0731 5.7502 16.6951C5.73275 16.6847 5.71977 16.6677 5.71395 16.6476C5.70814 16.6274 5.70993 16.6057 5.71895 16.5869C5.72427 16.5747 5.73231 16.564 5.74239 16.5557C5.87364 16.4524 6.00489 16.3442 6.12989 16.236C6.14093 16.2266 6.15418 16.2206 6.16821 16.2186C6.18225 16.2166 6.19655 16.2186 6.20957 16.2245C10.3017 18.1858 14.7314 18.1858 18.7735 16.2245C18.787 16.2183 18.8018 16.2162 18.8164 16.2182C18.831 16.2202 18.8448 16.2264 18.8563 16.236C18.9813 16.3442 19.1126 16.4524 19.2438 16.5557C19.2544 16.5639 19.263 16.5747 19.2687 16.5872C19.2744 16.5996 19.277 16.6134 19.2764 16.6272C19.2758 16.641 19.2719 16.6544 19.2651 16.6663C19.2584 16.6781 19.2489 16.688 19.2376 16.6951C18.6142 17.0765 17.9614 17.4024 17.286 17.6692C17.2752 17.6733 17.2655 17.6798 17.2574 17.6883C17.2493 17.6968 17.243 17.7071 17.2391 17.7184C17.2355 17.7294 17.2341 17.741 17.2349 17.7525C17.2357 17.7641 17.2387 17.7754 17.2438 17.7856C17.6188 18.5482 18.0485 19.2763 18.5204 19.965C18.5299 19.9793 18.5435 19.99 18.5593 19.9957C18.575 20.0013 18.592 20.0014 18.6079 19.9962C20.856 19.2731 22.9701 18.1528 24.8594 16.6836C24.8688 16.6768 24.8767 16.6677 24.8824 16.6572C24.8881 16.6467 24.8914 16.635 24.8922 16.623C25.4141 10.9637 24.0188 6.04738 21.1954 1.69022C21.1925 1.68302 21.1883 1.67653 21.1829 1.67116C21.1775 1.66579 21.1711 1.66167 21.1641 1.65906ZM8.35486 13.6417C7.12206 13.6417 6.10801 12.4544 6.10801 10.9982C6.10801 9.54032 7.10331 8.35305 8.35486 8.35305C9.61579 8.35305 10.6205 9.55016 10.6017 10.9982C10.6017 12.4544 9.60641 13.6417 8.35486 13.6417ZM16.661 13.6417C15.4298 13.6417 14.4142 12.4544 14.4142 10.9982C14.4142 9.54032 15.4095 8.35305 16.661 8.35305C17.922 8.35305 18.9282 9.55016 18.9079 10.9982C18.9079 12.4544 17.922 13.6417 16.661 13.6417Z"/>
    </g>

    <g id="html5">
        <g clip-path="url(#clip0_1_4700)">
            <path d="M37.2872 8.56567L34.4741 40.0798L21.829 43.5854L9.21871 40.0847L6.40851 8.56567H37.2872Z" fill="#E44D26"/>
            <path d="M21.8478 40.9058L32.0657 38.0731L34.4696 11.1428H21.8478V40.9058Z" fill="#F16529"/>
            <path d="M16.3792 18.8742H21.8478V15.0085H12.1545L12.247 16.0456L13.1972 26.6984H21.8478V22.8327H16.7325L16.3792 18.8742ZM17.2505 28.6313H13.3699L13.9114 34.701L21.83 36.8991L21.8478 36.8943V32.8723L21.8309 32.8768L17.5257 31.7143L17.2505 28.6313Z" fill="#EBEBEB"/>
            <path d="M9.28137 0.00012207H11.2459V1.94101H13.043V0.00012207H15.0076V5.87761H13.0431V3.90949H11.246V5.87761H9.28149V0.00012207H9.28137ZM17.5908 1.94924H15.8616V0.00012207H21.2859V1.94924H19.5557V5.87761H17.5912V1.94924H17.5911H17.5908ZM22.1468 0.00012207H24.1951L25.4552 2.06532L26.714 0.00012207H28.7632V5.87761H26.8067V2.9644L25.4552 5.05417H25.4213L24.0689 2.9644V5.87761H22.1468V0.00012207ZM29.7409 0.00012207H31.706V3.93491H34.4686V5.87761H29.7407V0.00012207H29.7409Z" fill="black"/>
            <path d="M21.8345 26.6984H26.5946L26.1458 31.7119L21.8344 32.8756V36.8973L29.7592 34.701L29.8173 34.0479L30.7259 23.8708L30.8202 22.8327H21.8345V26.6984ZM21.8345 18.8648V18.8742H31.1719L31.2494 18.0054L31.4256 16.0456L31.518 15.0085H21.8345V18.8649V18.8648Z" fill="white"/>
        </g>
        <defs>
            <clipPath id="clip0_1_4700">
                <rect width="43.6957" height="43.6957" fill="white"/>
            </clipPath>
        </defs>
    </g>
    <g id="css3">
        <path d="M39.3687 45.5357L26.1737 49.0886L12.9785 45.5357L9.93365 12.5482H42.414L39.3687 45.5357Z" fill="#2062AF"/>
        <path d="M26.1736 15.2202V46.2549L26.2034 46.263L36.8816 43.3876L39.3463 15.2202H26.1736Z" fill="#3C9CD7"/>
        <path d="M18.685 7.70169V5.73828H21.5496V3.58984H16.5366V9.66219H21.5496V7.70169H18.685ZM26.7027 5.73828H28.7055V3.58984H23.6919V5.73828C24.3627 6.40902 24.7125 6.73006 25.6826 7.70014C25.1155 7.70014 23.6919 7.70217 23.6919 7.70208V9.66219H28.7055V7.70169L26.7027 5.73828ZM33.8085 5.73828H35.8112V3.58984H30.7974V5.73828C31.4682 6.40902 31.8182 6.73006 32.7883 7.70014C32.2214 7.70014 30.7974 7.70217 30.7974 7.70208V9.66219H35.8113V7.70169L33.8085 5.73828Z" fill="black"/>
        <path d="M26.1619 23.4683L16.7178 27.4016L17.031 31.2957L26.1619 27.3917L35.8748 23.239L36.2775 19.2554L26.1619 23.4683Z" fill="white"/>
        <path d="M16.7177 27.4016L17.0309 31.2958L26.1618 27.3917V23.4684L16.7177 27.4016Z" fill="url(#paint0_linear_1_4709)"/>
        <path d="M36.2775 19.2555L26.1619 23.4684V27.3917L35.8748 23.239L36.2775 19.2555Z" fill="url(#paint1_linear_1_4709)"/>
        <path d="M16.7322 27.4016L17.0455 31.2958L31.0557 31.3404L30.7423 36.5326L26.1322 37.8305L21.7004 36.7115L21.4319 33.4888H17.3141L17.8512 39.7104L26.1769 42.1721L34.4575 39.7551L35.5318 27.4016H16.7322Z" fill="url(#paint2_linear_1_4709)"/>
        <path opacity="0.05" d="M26.1619 27.4016H16.7178L17.031 31.2958L26.1619 31.3249V27.4016ZM26.1619 37.8181L26.1172 37.8306L21.686 36.7116L21.4175 33.4889H17.2997L17.8368 39.7105L26.1619 42.1722V37.8181Z" fill="black"/>
        <path d="M15.8673 19.2555H36.2776L35.8749 23.2391H16.3596L15.8673 19.2555Z" fill="url(#paint3_linear_1_4709)"/>
        <path opacity="0.05" d="M26.1619 19.2555H15.8673L16.3596 23.2391H26.1619V19.2555Z" fill="black"/>
        <defs>
            <linearGradient id="paint0_linear_1_4709" x1="21.4398" y1="31.2959" x2="21.4398" y2="23.4685" gradientUnits="userSpaceOnUse">
                <stop offset="0.387" stop-color="#D1D3D4" stop-opacity="0"/>
                <stop offset="1" stop-color="#D1D3D4"/>
            </linearGradient>
            <linearGradient id="paint1_linear_1_4709" x1="31.2196" y1="27.3918" x2="31.2196" y2="19.2556" gradientUnits="userSpaceOnUse">
                <stop offset="0.387" stop-color="#D1D3D4" stop-opacity="0"/>
                <stop offset="1" stop-color="#D1D3D4"/>
            </linearGradient>
            <linearGradient id="paint2_linear_1_4709" x1="16.7322" y1="34.787" x2="35.5317" y2="34.787" gradientUnits="userSpaceOnUse">
                <stop stop-color="#E8E7E5"/>
                <stop offset="1" stop-color="white"/>
            </linearGradient>
            <linearGradient id="paint3_linear_1_4709" x1="15.8673" y1="21.2473" x2="36.2775" y2="21.2473" gradientUnits="userSpaceOnUse">
                <stop stop-color="#E8E7E5"/>
                <stop offset="1" stop-color="white"/>
            </linearGradient>
        </defs>
    </g>
    <g id="bootstrap">
        <g clip-path="url(#clip0_1_4731)">
            <path d="M0.260956 34.5055C0.260956 37.2923 2.51997 39.551 5.30649 39.551H34.3457C37.1327 39.551 39.3914 37.292 39.3914 34.5055V5.46628C39.3914 2.67931 37.1324 0.420593 34.3459 0.420593H5.30664C2.51967 0.420593 0.260956 2.67961 0.260956 5.46613V34.5053V34.5055Z" fill="#563D7C"/>
            <path d="M16.4876 17.7294V12.188H21.3653C21.8299 12.188 22.2778 12.2267 22.7091 12.3042C23.1405 12.3815 23.5222 12.5197 23.854 12.7189C24.1857 12.9181 24.4512 13.1946 24.6504 13.5484C24.8494 13.9024 24.9491 14.3559 24.9491 14.9088C24.9491 15.9044 24.6504 16.6234 24.053 17.0657C23.4558 17.5082 22.6926 17.7294 21.7634 17.7294H16.4876ZM11.2779 8.13971V31.832H22.759C23.8209 31.832 24.8551 31.6993 25.8616 31.4338C26.8681 31.1683 27.764 30.7591 28.5494 30.2061C29.3346 29.653 29.9596 28.9395 30.4241 28.0658C30.8888 27.192 31.121 26.1577 31.121 24.9632C31.121 23.481 30.7615 22.2146 30.0426 21.1639C29.3236 20.113 28.234 19.3775 26.774 18.9571C27.8358 18.4484 28.6379 17.7958 29.1799 16.9994C29.7218 16.203 29.9928 15.2076 29.9928 14.0129C29.9928 12.9069 29.8103 11.9779 29.4452 11.2257C29.0802 10.4736 28.5659 9.87077 27.9022 9.41726C27.2387 8.96374 26.4423 8.6374 25.5131 8.43838C24.584 8.23922 23.5553 8.13971 22.4271 8.13971H11.2779ZM16.4876 27.7836V21.2799H22.1616C23.2898 21.2799 24.1969 21.5397 24.8827 22.0598C25.5684 22.5796 25.9114 23.4478 25.9114 24.6645C25.9114 25.284 25.8063 25.7927 25.5961 26.1909C25.3859 26.5891 25.1039 26.9044 24.7499 27.1366C24.396 27.369 23.9867 27.5348 23.5222 27.6345C23.0575 27.7338 22.571 27.7836 22.0621 27.7836H16.4876Z" fill="white"/>
        </g>
        <defs>
            <clipPath id="clip0_1_4731">
                <rect width="39.1304" height="39.1304" fill="white" transform="translate(0.260956 0.420593)"/>
            </clipPath>
        </defs>
    </g>
    <g id="photoshop">
        <path d="M3.93411 4.42578H85.5995V85.2804H3.93411V4.42578Z" fill="url(#paint0_radial_6_7747)"/>
        <path d="M3.93406 4.42575H85.5994V85.2803H3.93406V4.42575ZM0.221191 89.0596H89.2944V0.646484H0.221191V89.0596ZM60.2876 36.9311C57.3602 36.9311 56.3605 38.4392 56.3605 39.6929C56.3605 41.0556 57.021 42.0004 60.9659 44.0717C66.7852 46.9425 68.6059 49.7043 68.6059 53.7379C68.6059 59.7884 64.0719 63.0408 57.9492 63.0408C54.7183 63.0408 51.9337 62.3685 50.345 61.4237C50.0772 61.3146 50.0415 61.1148 50.0415 60.8241V55.246C50.0415 54.8645 50.22 54.7554 50.4878 54.9371C52.8262 56.4815 55.5037 57.172 57.9492 57.172C60.8767 57.172 62.1084 55.9183 62.1084 54.2285C62.1084 52.8658 61.2515 51.6666 57.503 49.6861C52.2371 47.1242 50.0415 44.526 50.0415 40.1653C50.0415 35.2958 53.7901 31.244 60.2876 31.244C63.4828 31.244 65.7141 31.7346 66.928 32.2979C67.2314 32.4796 67.3028 32.7884 67.3028 33.061V38.2393C67.3028 38.5482 67.1243 38.7299 66.7495 38.6209C65.1072 37.567 62.6974 36.9311 60.2876 36.9311ZM28.3712 41.419C29.228 41.4917 29.8885 41.4917 31.3701 41.4917C35.7077 41.4917 39.7954 39.9472 39.7954 33.9331C39.7954 29.1364 36.868 26.7198 31.9234 26.7198C30.4418 26.7198 29.0317 26.7925 28.3533 26.8288L28.3712 41.419ZM21.7487 21.3598C21.7487 21.0872 22.2664 20.9055 22.5698 20.9055C24.9439 20.7965 28.4783 20.7239 32.1376 20.7239C42.4194 20.7239 46.4358 26.4654 46.4358 33.7878C46.4358 43.3813 39.5991 47.5058 31.2094 47.5058C29.7992 47.5058 29.3173 47.4331 28.3176 47.4331V61.9324C28.3176 62.2413 28.2105 62.3867 27.8714 62.3867H22.195C21.8915 62.3867 21.7487 62.2776 21.7487 61.9324V21.3598Z" fill="#31C5F0"/>
        <defs>
            <radialGradient id="paint0_radial_6_7747" cx="0" cy="0" r="1" gradientUnits="userSpaceOnUse" gradientTransform="translate(30.8385 22.5656) scale(62.0565 61.1565)">
                <stop stop-color="#34364E" stop-opacity="0.98"/>
                <stop offset="1" stop-color="#0C0824"/>
            </radialGradient>
        </defs>
    </g>
    <g id="redux">
        <path d="M72.6971 69.5627C76.5688 69.1619 79.5061 65.8242 79.3725 61.8184C79.2393 57.8131 75.9012 54.6086 71.8959 54.6086H71.6291C67.4897 54.7422 64.2856 58.2135 64.4193 62.3525C64.5529 64.3553 65.3537 66.091 66.5553 67.2926C62.016 76.2385 55.0734 82.7807 44.6594 88.2549C37.5832 91.9934 30.2402 93.3287 22.8971 92.3943C16.8889 91.593 12.216 88.923 9.27827 84.5164C5.00614 77.9742 4.60573 70.8975 8.21065 63.8213C10.7475 58.7475 14.7525 55.009 17.2893 53.1398C16.7553 51.4041 15.9541 48.4668 15.5537 46.3307C-3.80574 60.35 -1.80287 79.3094 4.07172 88.2549C8.47745 94.9311 17.4229 99.0701 27.3029 99.0701C29.9729 99.0701 32.643 98.8029 35.3135 98.1357C52.4033 94.7975 65.3541 84.65 72.6971 69.5627ZM96.1955 53.0066C86.0483 41.1234 71.0951 34.5811 54.0053 34.5811H51.8693C50.6676 32.1779 48.1307 30.5754 45.327 30.5754H45.0598C40.9213 30.709 37.7172 34.1803 37.8504 38.3197C37.984 42.325 41.3217 45.5295 45.327 45.5295H45.5938C48.5311 45.3959 51.068 43.5266 52.1361 40.9898H54.5393C64.6865 40.9898 74.2992 43.927 82.9779 49.6684C89.6533 54.0746 94.4598 59.816 97.1299 66.7586C99.3996 72.3664 99.266 77.8406 96.8627 82.5139C93.1246 89.5902 86.8496 93.4623 78.5717 93.4623C73.2311 93.4623 68.1578 91.8598 65.4873 90.6582C64.0188 91.9934 61.3484 94.1295 59.4791 95.4652C65.2205 98.1352 71.0951 99.6041 76.7025 99.6041C89.5197 99.6041 98.9992 92.5275 102.604 85.4512C106.476 77.707 106.209 64.3553 96.1955 53.0066ZM28.3709 71.832C28.5045 75.8377 31.8422 79.0418 35.8475 79.0418H36.1147C40.2537 78.9086 43.4578 75.4369 43.3242 71.2979C43.191 67.2922 39.8529 64.0881 35.8475 64.0881H35.5807C35.3135 64.0881 34.9127 64.0881 34.6463 64.2213C29.1721 55.1422 26.9025 45.2623 27.7037 34.5807C28.2373 26.5697 30.9078 19.6266 35.5807 13.8852C39.4525 8.94508 46.9291 6.5418 52.0029 6.40861C66.1549 6.14139 72.1627 23.7656 72.5635 30.8422C74.2992 31.2426 77.2365 32.1775 79.2393 32.8451C77.6369 11.2156 64.2856 0 51.4688 0C39.4524 0 28.3709 8.67869 23.9647 21.4963C17.8234 38.5865 21.8287 55.009 29.3053 67.9602C28.6381 68.8947 28.2373 70.3635 28.3709 71.8324V71.832Z" fill="#764ABC"/>
    </g>
    <g id="sass">
        <g clip-path="url(#clip0_2_5872)">
            <path d="M100.673 50.0767C96.603 50.0975 93.0653 51.0695 90.1035 52.5064C89.0162 50.3721 87.9295 48.4708 87.738 47.0761C87.5246 45.4494 87.2691 44.4561 87.5246 42.5122C87.7805 40.5683 88.9312 37.8002 88.9098 37.589C88.8887 37.3779 88.6538 36.3846 86.3098 36.3638C83.9658 36.3425 81.9413 36.8074 81.7068 37.42C81.4724 38.0326 81.025 39.4274 80.7266 40.8638C80.3216 42.9771 76.0386 50.5199 73.5881 54.4711C72.7993 52.9291 72.1174 51.5765 71.968 50.499C71.755 48.8723 71.4991 47.879 71.755 45.9351C72.0109 43.9912 73.1617 41.2235 73.1402 41.0119C73.1187 40.8008 72.8843 39.8075 70.5403 39.7867C68.1958 39.7654 66.1713 40.2303 65.9373 40.8429C65.7029 41.456 65.4469 42.8924 64.957 44.2871C64.4667 45.6818 58.7769 58.2751 57.2852 61.5285C56.6824 62.8454 56.0501 64.1487 55.3886 65.4376C55.3886 65.4376 55.3672 65.5011 55.3032 65.6067C55.0954 66.0108 54.8824 66.4123 54.6643 66.8111V66.8319C54.3444 67.4028 54.0035 67.9307 53.833 67.9307C53.705 67.9307 53.4706 66.4096 53.8755 64.3388C54.7278 59.9652 56.7524 53.1616 56.7313 52.9291C56.7313 52.8022 57.1148 51.6191 55.4101 51.0061C53.7475 50.3934 53.1511 51.4075 53.0017 51.4075C52.8527 51.4075 52.7458 51.7669 52.7458 51.7669C52.7458 51.7669 54.6003 44.1181 49.2085 44.1181C45.8417 44.1181 41.1958 47.7735 38.8943 51.0695C36.278 52.4812 33.6639 53.8969 31.052 55.3166C29.7953 56.014 28.4951 56.7114 27.2803 57.3661C27.1949 57.2818 27.1099 57.1758 27.0244 57.0915C20.5034 50.1823 8.442 45.3012 8.95339 36.0257C9.14534 32.645 10.3171 23.7705 32.1178 12.9948C50.0608 4.22589 64.3392 6.65555 66.8111 12.0437C70.3484 19.735 59.1608 34.0184 40.6204 36.0887C33.5455 36.8708 29.8373 34.1661 28.9 33.152C27.9197 32.0953 27.7703 32.0319 27.4079 32.2435C26.8115 32.5607 27.1949 33.5114 27.4079 34.0605C27.9622 35.497 30.2422 38.0326 34.0994 39.2796C37.5091 40.378 45.7988 40.9911 55.8361 37.1454C67.0666 32.8348 75.8466 20.8547 73.2682 10.8184C70.6893 0.633969 53.641 -2.7255 37.5091 2.95805C27.9197 6.33927 17.52 11.6635 10.0402 18.594C1.15363 26.8341 -0.253039 33.9971 0.322334 36.9977C2.38984 47.6466 17.2006 54.5771 23.1248 59.7115C22.8263 59.8805 22.5489 60.0287 22.3149 60.1556C19.3526 61.6133 8.05811 67.4658 5.24523 73.6569C2.04891 80.6717 5.75708 85.7009 8.20756 86.3765C15.8154 88.4686 23.6362 84.7077 27.8342 78.4953C32.0323 72.2834 31.5209 64.2119 29.5818 60.5144C29.5604 60.4723 29.5393 60.4297 29.4964 60.3876C30.2637 59.9439 31.052 59.479 31.8194 59.0354C33.2296 58.2088 34.6578 57.4127 36.1029 56.6475C35.3781 58.6127 34.8452 60.958 34.5897 64.3388C34.2698 68.3114 35.9105 73.4666 38.063 75.4947C39.0223 76.3829 40.1515 76.4037 40.8763 76.4037C43.3908 76.4037 44.5205 74.3329 45.7778 71.882C47.3119 68.8818 48.6971 65.3955 48.6971 65.3955C48.6971 65.3955 46.971 74.8191 51.6595 74.8191C53.3641 74.8191 55.0902 72.6215 55.8575 71.5018V71.5227C55.8575 71.5227 55.9 71.4592 55.9855 71.3115C56.156 71.0369 56.2624 70.8674 56.2624 70.8674V70.8257C56.9443 69.6422 58.4789 66.9588 60.7589 62.5005C63.6998 56.7535 66.5342 49.5697 66.5342 49.5697C66.5342 49.5697 66.7901 51.3232 67.6634 54.2391C68.1753 55.9506 69.2401 57.831 70.0929 59.6481C69.411 60.5992 68.9846 61.1271 68.9846 61.1271L69.0061 61.1484C68.4518 61.8666 67.8554 62.6482 67.1945 63.4095C64.8716 66.1558 62.1016 69.3046 61.7178 70.2127C61.2699 71.2902 61.3768 72.0723 62.2296 72.7062C62.8475 73.1711 63.9553 73.2341 65.085 73.1711C67.1735 73.0229 68.6437 72.5159 69.3681 72.1992C70.4978 71.7977 71.819 71.1846 73.0548 70.2761C75.3352 68.6068 76.72 66.2193 76.5925 63.0714C76.5285 61.3387 75.9531 59.6059 75.2498 57.9787C75.4632 57.6833 75.6547 57.3874 75.8681 57.0915C79.4693 51.8724 82.2612 46.1463 82.2612 46.1463C82.2612 46.1463 82.5171 47.8999 83.3905 50.8162C83.8168 52.2952 84.6907 53.9011 85.4575 55.4644C82.0693 58.1904 79.9807 61.3595 79.2349 63.4303C77.8926 67.276 78.9365 69.0083 80.9185 69.4097C81.8133 69.6 83.092 69.1773 84.0298 68.7758C85.2231 68.3956 86.6297 67.7409 87.9724 66.7685C90.2529 65.0996 92.4474 62.7751 92.3195 59.6272C92.2555 58.1904 91.8721 56.7743 91.3392 55.4009C94.2161 54.2183 97.9242 53.563 102.655 54.1122C112.799 55.2953 114.802 61.5707 114.418 64.2124C114.035 66.8532 111.904 68.2901 111.201 68.7337C110.497 69.1777 110.263 69.3254 110.327 69.6422C110.412 70.1071 110.753 70.0862 111.35 70.0015C112.181 69.8538 116.678 67.8673 116.869 63.0075C117.189 56.7956 111.222 50.0133 100.673 50.0767ZM22.4214 76.2347C19.0542 79.8688 14.3662 81.2422 12.3417 80.0804C10.1681 78.8334 11.0204 73.4666 15.1545 69.6213C17.669 67.276 20.9083 65.0992 23.0608 63.7683C23.5507 63.4724 24.2755 63.0501 25.1493 62.5218C25.2983 62.437 25.3838 62.3949 25.3838 62.3949L25.8952 62.0777C27.4078 67.5714 25.9591 72.4103 22.4214 76.2347ZM46.9285 59.7115C45.7563 62.5431 43.3058 69.7904 41.8141 69.3889C40.5354 69.0509 39.7466 63.5572 41.5582 58.1269C42.4745 55.4009 44.4136 52.147 45.5433 50.8796C47.3759 48.851 49.4005 48.1745 49.8904 48.9992C50.5087 50.0767 47.6529 57.9366 46.9285 59.7115ZM67.152 69.3042C66.6617 69.5579 66.1932 69.7269 65.9798 69.6C65.8308 69.5153 66.1932 69.1773 66.1932 69.1773C66.1932 69.1773 68.7292 66.473 69.7305 65.2473C70.3063 64.5291 70.9877 63.684 71.7125 62.7329V63.0075C71.7125 66.2406 68.5583 68.4169 67.1516 69.3042H67.152ZM82.7511 65.7757C82.3887 65.5219 82.4527 64.6768 83.6674 62.0356C84.1363 61.0002 85.2441 59.2679 87.1411 57.5986C87.3541 58.2746 87.5035 58.9299 87.4821 59.5425C87.4606 63.6206 84.5202 65.1417 82.7511 65.7757Z" fill="#CD6799"/>
        </g>
        <defs>
            <clipPath id="clip0_2_5872">
                <rect width="117" height="87" fill="white"/>
            </clipPath>
        </defs>
    </g>
    <g id="js">
        <path d="M7.5 7.5H112.5V112.5H7.5V7.5Z" fill="#F5DE19"/>
        <path d="M78.0338 89.5312C78.9284 91.3485 80.3183 92.8759 82.0434 93.9375C83.7684 94.9991 85.7584 95.5515 87.7838 95.5313C91.8713 95.5313 94.485 93.4875 94.485 90.6562C94.485 87.2812 91.8 86.0738 87.3 84.105L84.8325 83.0475C77.7075 80.0138 72.9825 76.215 72.9825 68.1825C72.9825 60.7838 78.6075 55.1475 87.4313 55.1475C90.2877 54.9412 93.1416 55.5805 95.637 56.9856C98.1324 58.3907 100.159 60.4994 101.464 63.0488L93.75 67.98C93.2476 66.716 92.3728 65.6345 91.2416 64.879C90.1105 64.1236 88.7764 63.7298 87.4163 63.75C86.8229 63.6906 86.2236 63.7555 85.6567 63.9404C85.0897 64.1254 84.5675 64.4265 84.1234 64.8244C83.6792 65.2224 83.3228 65.7085 83.0769 66.2518C82.831 66.7951 82.7009 67.3837 82.695 67.98C82.695 70.9388 84.5288 72.1388 88.7625 73.98L91.23 75.0375C99.615 78.6338 104.355 82.2975 104.355 90.5363C104.355 99.42 97.3763 104.287 88.005 104.287C84.3537 104.52 80.713 103.691 77.5223 101.901C74.3317 100.11 71.7274 97.4342 70.0238 94.1963L78.0338 89.5312ZM43.1775 90.3863C44.7263 93.135 46.1363 95.46 49.5263 95.46C52.7663 95.46 54.8138 94.1925 54.8138 89.2612V55.71H64.68V89.3925C64.68 99.6075 58.68 104.257 49.9463 104.257C46.8591 104.426 43.7931 103.657 41.1513 102.051C38.5096 100.444 36.4157 98.0761 35.145 95.2575L43.1775 90.3863Z" fill="black"/>
    </g>
    <g id="typescript">
        <path d="M0 60V120H60H120V60V0H60H0V60Z" fill="#007ACC"/>
        <path d="M26.5374 60.3979L26.4993 65.3122H34.3088H42.1184L42.1184 87.5026V109.693H47.6422H53.166V87.5026L53.166 65.3122H60.9755H68.785V60.4931C68.785 57.8264 68.7279 55.5979 68.6517 55.5407C68.5946 55.4645 59.0898 55.4264 47.566 55.4455L26.5946 55.5026L26.5374 60.3979Z" fill="white"/>
        <path d="M96.8264 55.3636C99.874 56.1255 102.198 57.4779 104.331 59.6874C105.436 60.8684 107.074 63.0208 107.207 63.535C107.245 63.6874 102.026 67.1922 98.8644 69.1541C98.7502 69.2303 98.293 68.7351 97.7787 67.9731C96.2359 65.7255 94.6168 64.7541 92.1406 64.5827C88.5025 64.335 86.1597 66.2398 86.1787 69.4208C86.1787 70.3541 86.3121 70.9065 86.693 71.6684C87.493 73.3255 88.9787 74.316 93.6454 76.3351C102.236 80.0303 105.912 82.4684 108.198 85.935C110.75 89.8017 111.322 95.9731 109.588 100.564C107.683 105.554 102.96 108.945 96.3121 110.068C94.2549 110.43 89.3787 110.373 87.1692 109.973C82.3502 109.116 77.7787 106.735 74.9597 103.611C73.8549 102.392 71.7025 99.2112 71.8359 98.9827C71.893 98.9065 72.3883 98.6017 72.9406 98.2779C73.474 97.9731 75.493 96.8112 77.3978 95.7065L80.8454 93.7065L81.5692 94.7731C82.5787 96.316 84.7883 98.4303 86.1216 99.135C89.9502 101.154 95.2073 100.868 97.7978 98.5446C98.9025 97.535 99.3597 96.4874 99.3597 94.9446C99.3597 93.5541 99.1883 92.9446 98.4644 91.897C97.5311 90.5636 95.6263 89.4398 90.2168 87.097C84.0263 84.4303 81.3597 82.7731 78.9216 80.1446C77.5121 78.6208 76.1787 76.1827 75.6264 74.1446C75.1692 72.4493 75.0549 68.2017 75.4168 66.4874C76.693 60.5065 81.2073 56.335 87.7216 55.097C89.8359 54.697 94.7502 54.8493 96.8264 55.3636Z" fill="white"/>
    </g>
    <g id="docker">
        <path d="M117.523 33.7463C114.821 31.8713 108.628 31.1681 103.787 32.1056C103.224 27.4181 100.635 23.3171 96.1308 19.6842L93.5414 17.8092L91.7395 20.5046C89.4881 24.0202 88.3622 28.9421 88.6997 33.6296C88.8122 35.2697 89.3752 38.1994 91.0641 40.7775C89.4881 41.715 86.2228 42.8869 81.9445 42.8869H0.541401L0.316401 43.8244C-0.472037 48.5114 -0.472037 63.1594 8.76046 74.4089C15.7411 82.9632 26.0995 87.2991 39.7228 87.2991C69.2212 87.2991 91.0641 73.1194 101.31 47.4567C105.363 47.5739 114.033 47.4567 118.424 38.6677C118.537 38.4333 118.762 37.9646 119.55 36.2072L120 35.2697L117.523 33.7463ZM65.6184 0.700806H53.2341V12.4191H65.6184V0.700806ZM65.6184 14.7628H53.2341V26.4811H65.6184V14.7624V14.7628ZM50.9817 14.7628H38.5973V26.4811H50.9817V14.7624V14.7628ZM36.345 14.7628H23.9602V26.4811H36.345V14.7624V14.7628ZM21.7083 28.8249H9.32343V40.5432H21.7078V28.8244L21.7083 28.8249ZM36.345 28.8249H23.9602V40.5432H36.345V28.8244V28.8249ZM50.9817 28.8249H38.5973V40.5432H50.9817V28.8244V28.8249ZM65.6189 28.8249H53.2336V40.5432H65.6189V28.8244V28.8249ZM80.2556 28.8249H67.8703V40.5432H80.2556V28.8244V28.8249Z" fill="#2396ED"/>
    </g>
    <g id="mongodb">
        <path d="M50.7409 47.7544C44.7206 19.869 32.1565 12.4436 28.9684 7.19463C27.2356 4.33931 25.4687 0 25.4687 0C25.296 2.47333 24.9897 4.03976 22.9795 5.91949C18.9537 9.68719 1.84559 24.3238 0.408565 56.0098C-0.931608 85.5523 21.087 103.772 24.0134 105.655C26.2488 106.809 28.9867 105.677 30.2955 104.619C40.9069 96.9681 55.4237 76.5686 50.7279 47.7544" fill="#10AA50"/>
        <path d="M26.3807 89.9189C25.8284 97.2345 25.4305 101.491 24.0249 105.663C24.0249 105.663 24.9515 112.624 25.5954 120H27.891C28.439 114.805 29.2754 109.648 30.396 104.556C27.4224 103.025 26.4932 96.3358 26.3807 89.9189Z" fill="#B8C4C2"/>
        <path d="M30.3943 104.561C27.3894 103.104 26.5204 96.2809 26.3869 89.9189C27.1272 79.43 27.3413 68.9075 27.0282 58.395C26.8711 52.8795 27.1067 7.30163 25.7351 0.62915C26.29 1.93452 27.6302 5.00144 28.9704 7.19171C32.1716 12.4434 44.7252 19.8689 50.7403 47.757C55.4283 76.497 40.9979 96.8607 30.3943 104.561Z" fill="#12924F"/>
    </g>
    <g id="nest">
        <path fill-rule="evenodd" clip-rule="evenodd" d="M70.6687 0C69.8449 0.00936615 69.0283 0.154155 68.2515 0.428571C75.1558 4.96286 67.0515 11.5457 70.823 17.1429C70.5591 15.2693 70.8564 13.3595 71.6771 11.6547C72.4978 9.94995 73.8053 8.52656 75.4344 7.56429C76.6558 6.54857 77.4358 6.18429 77.1744 4.50429C76.763 1.75286 73.0944 0 70.6687 0ZM80.5258 1.77429C79.5744 6.58714 78.383 6.76286 74.8558 9.86143C73.4787 10.9449 72.5066 12.4606 72.0961 14.164C71.6856 15.8675 71.8606 17.6596 72.593 19.2514C58.0215 13.5943 39.3444 10.1743 25.6515 19.9629C20.7272 23.4814 17.7187 28.5343 11.6458 30.5957C7.7201 31.9371 3.86296 31.5429 1.41153 35.4343C0.511845 36.558 0.0418561 37.9654 0.0858371 39.4042C0.129818 40.843 0.684892 42.2191 1.65153 43.2857C2.3801 44.0357 3.79439 44.5157 4.37725 45.2786C4.71582 45.7071 4.70725 46.1357 5.02868 46.7057C5.59537 48.0348 6.41649 49.2403 7.44582 50.2543C8.07153 50.7729 10.2401 51.2786 10.6087 51.8314C11.0672 52.5214 9.86725 55.26 10.8744 55.6886C11.5558 56.0014 13.5401 52.5 13.733 52.1914C13.3387 54.9471 12.8201 59.8371 15.9187 55.7657C17.3887 53.8329 17.4787 53.1943 19.9515 52.7657C24.832 51.9298 29.8328 52.1146 34.6382 53.3084C39.4437 54.5023 43.9495 56.6792 47.8714 59.7019C51.7933 62.7245 55.0461 66.5273 57.4245 70.8702C59.8029 75.2131 61.2553 80.0019 61.6901 84.9343C61.2272 82.7914 58.4287 79.3629 55.823 80.1771C54.713 80.52 54.3015 82.4357 53.573 83.5457C52.6531 84.9541 51.5179 86.2094 50.2087 87.2657C50.4322 85.1881 50.3281 83.0882 49.9001 81.0429C49.1201 84.2486 47.5558 89.5671 43.6172 88.7057C42.3052 88.5054 41.0759 87.9403 40.0695 87.0749C39.0632 86.2095 38.3204 85.0787 37.9258 83.8114C37.4158 80.5543 40.8572 76.7357 35.3244 76.4657C24.2244 75.9214 26.7915 92.2457 33.3444 96.5014C31.8384 96.668 30.3693 97.0776 28.9944 97.7143C33.1537 100.131 37.8403 101.496 42.6469 101.69C47.4535 101.883 52.2348 100.901 56.5751 98.8262C60.9155 96.7519 64.6836 93.6491 67.552 89.7873C70.4205 85.9255 72.3024 81.4217 73.0344 76.6671C74.5608 83.6224 73.5802 90.8933 70.2658 97.1957C68.8786 99.8304 67.1014 102.24 64.9944 104.344C63.7087 105.63 61.163 107.044 60.3272 108.377C65.5285 107.689 70.6113 106.294 75.4344 104.229C70.4422 111.031 63.8069 116.457 56.1487 120C64.3719 119.418 72.321 116.798 79.2791 112.377C86.2372 107.956 91.9856 101.873 96.0058 94.6757C94.7246 101.874 91.8791 108.703 87.6701 114.681C93.3312 110.891 98.1476 105.972 101.817 100.232C105.486 94.4917 107.929 88.0549 108.992 81.3257C110.045 86.2519 110.347 91.3092 109.887 96.3257C114.539 89.8646 117.682 82.4422 119.085 74.6051C120.487 66.7682 120.114 58.7163 117.992 51.0429C116.367 45.0782 113.932 39.3648 110.753 34.0629C109.523 31.9968 108.176 30.0021 106.72 28.0886C106.15 27.3471 103.103 24.6343 103.103 23.8029C103.077 23.8857 103.056 23.8857 103.039 23.8029C103.039 37.8 88.0387 46.5643 75.4772 42.93C80.3399 42.5484 84.9268 40.5192 88.4801 37.1778C92.0334 33.8365 94.3405 29.3829 95.0201 24.5529C95.5934 19.6687 94.4652 14.7362 91.8258 10.5868C89.1863 6.43752 85.1969 3.32511 80.5301 1.77429H80.5258Z" fill="url(#paint0_linear_1_1825)"/>
        <defs>
            <linearGradient id="paint0_linear_1_1825" x1="59.993" y1="120" x2="59.993" y2="0" gradientUnits="userSpaceOnUse">
                <stop stop-color="#FFB199"/>
                <stop offset="1" stop-color="#FF0844"/>
            </linearGradient>
        </defs>
    </g>
    <g id="postgrest">
        <path d="M116.889 71.8826C116.189 69.7638 114.357 68.2881 111.987 67.9339C110.869 67.7671 109.59 67.8382 108.075 68.1504C105.435 68.695 103.477 68.9024 102.048 68.9425C107.443 59.8342 111.829 49.4475 114.355 39.6702C118.438 23.8605 116.256 16.6581 113.706 13.4004C106.958 4.77748 97.1119 0.145172 85.234 0.00343171C78.8976 -0.0740469 73.3351 1.177 70.4333 2.07667C67.7316 1.59995 64.8266 1.33378 61.7785 1.28456C56.0647 1.19341 51.0163 2.43899 46.7026 4.99898C44.3144 4.19138 40.4815 3.0529 36.0552 2.32642C25.6448 0.617335 17.2543 1.94906 11.1171 6.28467C3.68552 11.5341 0.240461 20.6547 0.877608 33.3931C1.07996 37.4374 3.34234 49.7429 6.90453 61.413C8.95179 68.1208 11.1349 73.691 13.3931 77.9706C16.5957 84.039 20.0226 87.6126 23.8696 88.896C26.0258 89.6143 29.9435 90.1174 34.064 86.6856C34.5863 87.3182 35.2831 87.9467 36.2079 88.5305C37.3823 89.2711 38.8184 89.8763 40.2527 90.235C45.4214 91.5271 50.2629 91.2039 54.3934 89.3928C54.419 90.1274 54.4386 90.8293 54.455 91.4355C54.4823 92.4185 54.5097 93.3825 54.5457 94.284C54.7904 100.379 55.2051 105.119 56.4339 108.435C56.5013 108.617 56.592 108.895 56.6877 109.19C57.3007 111.067 58.3257 114.209 60.9335 116.669C63.6339 119.218 66.9003 120 69.8919 120C71.3923 120 72.8238 119.803 74.0794 119.534C78.5549 118.575 83.638 117.114 87.315 111.878C90.7915 106.928 92.4815 99.4736 92.7873 87.7274C92.8269 87.3952 92.8634 87.078 92.8985 86.7758L92.9714 86.1551L93.7904 86.2271L94.0014 86.2412C98.5599 86.449 104.134 85.4824 107.557 83.8922C110.262 82.6371 118.93 78.0608 116.889 71.8826Z" fill="#1F2626"/>
        <path d="M109.095 73.0841C95.5413 75.8801 94.6093 71.2911 94.6093 71.2911C108.92 50.0561 114.903 23.1013 109.74 16.5042C95.6557 -1.49137 71.275 7.01943 70.868 7.24001L70.7372 7.26371C68.0592 6.70769 65.0626 6.37681 61.6941 6.32167C55.5614 6.2214 50.909 7.92957 47.3788 10.6067C47.3788 10.6067 3.88593 -7.31092 5.90903 33.1411C6.33926 41.7467 18.2436 98.2564 32.4423 81.1879C37.632 74.9463 42.6466 69.6691 42.6466 69.6691C45.1369 71.3235 48.1185 72.1675 51.244 71.8645L51.4869 71.6585C51.4113 72.4332 51.4459 73.1912 51.584 74.0885C47.9261 78.1753 49.0013 78.8927 41.6891 80.398C34.2899 81.923 38.6364 84.6375 41.4744 85.3476C44.9149 86.2076 52.8743 87.4263 58.2522 79.8976L58.038 80.7567C59.4709 81.9048 60.4772 88.2234 60.3086 93.9518C60.1399 99.6797 60.0274 103.612 61.1563 106.684C62.2861 109.756 63.4114 116.668 73.0242 114.608C81.056 112.887 85.2184 108.426 85.7977 100.985C86.2083 95.696 87.1385 96.478 87.1968 91.7487L87.9429 89.51C88.8029 82.3396 88.0796 80.0261 93.0278 81.1022L94.231 81.2079C97.8725 81.3734 102.64 80.6218 105.438 79.3215C111.462 76.5259 115.035 71.8576 109.095 73.0841H109.095Z" fill="#336791"/>
        <path d="M49.9253 36.9892C48.7039 36.8192 47.5978 36.9765 47.0381 37.4003C46.7236 37.6387 46.6261 37.9149 46.5997 38.1049C46.5295 38.6085 46.8822 39.1654 47.0992 39.4526C47.7126 40.2656 48.6086 40.8244 49.4955 40.9475C49.6241 40.9657 49.7521 40.9739 49.8793 40.9739C51.3582 40.9739 52.7032 39.8222 52.8216 38.9722C52.9698 37.9076 51.4243 37.1979 49.9253 36.9897" fill="white"/>
        <path d="M90.3868 37.0233C90.2701 36.1888 88.7853 35.9509 87.3761 36.1469C85.9687 36.3429 84.6042 36.9782 84.7181 37.8145C84.8092 38.4649 85.9837 39.5751 87.3738 39.5751C87.4914 39.5751 87.6099 39.5673 87.7293 39.5505C88.6572 39.422 89.3381 38.8327 89.6617 38.4931C90.1539 37.9754 90.4392 37.3984 90.3868 37.0233Z" fill="white"/>
        <path d="M113.606 72.7665C113.089 71.2037 111.426 70.701 108.662 71.2716C100.456 72.9652 97.5173 71.7921 96.5525 71.0815C102.931 61.3648 108.178 49.619 111.009 38.6604C112.349 33.4693 113.09 28.6483 113.151 24.7188C113.218 20.406 112.483 17.2366 110.968 15.3006C104.86 7.49576 95.8953 3.30918 85.0437 3.19433C77.5834 3.11047 71.2803 5.01963 70.0584 5.55651C67.4852 4.91663 64.68 4.52377 61.626 4.47364C56.0257 4.38294 51.1846 5.72378 47.1767 8.45695C45.4357 7.80886 40.9365 6.2643 35.4341 5.37786C25.9216 3.84652 18.3624 5.00687 12.9681 8.82839C6.53144 13.3887 3.55991 21.5403 4.13553 33.0564C4.32923 36.9308 6.53691 48.8497 10.0207 60.2642C14.6065 75.2877 19.5916 83.7926 24.8364 85.5422C25.4503 85.7469 26.1581 85.89 26.9388 85.89C28.8521 85.89 31.1979 85.0277 33.6385 82.0935C36.6153 78.5225 39.6946 75.0381 42.8726 71.6448C44.9344 72.7514 47.1995 73.3694 49.5161 73.4314C49.5207 73.492 49.5266 73.5526 49.5321 73.6128C49.1333 74.0883 48.7428 74.5707 48.3608 75.0598C46.7556 77.0975 46.4215 77.5218 41.2546 78.5856C39.7848 78.8891 35.8812 79.6935 35.8238 82.4299C35.7618 85.4196 40.4384 86.6752 40.9711 86.8083C42.8279 87.2732 44.6167 87.5024 46.3226 87.5024C50.4714 87.5024 54.1224 86.1388 57.0402 83.5004C56.9504 94.1588 57.3948 104.661 58.6745 107.861C59.7228 110.481 62.2832 116.883 70.3711 116.882C71.5579 116.882 72.8641 116.744 74.3011 116.436C82.7421 114.627 86.4078 110.896 87.8256 102.671C88.5845 98.2751 89.8866 87.7786 90.4991 82.1482C91.7916 82.5516 93.4556 82.7361 95.2545 82.7357C99.0062 82.7357 103.335 81.9386 106.05 80.6784C109.1 79.2619 114.604 75.7863 113.606 72.7665ZM93.5044 34.7199C93.4766 36.3821 93.2478 37.8911 93.0053 39.4662C92.7442 41.1602 92.4743 42.9117 92.4064 45.0378C92.3394 47.1069 92.5979 49.2581 92.8476 51.3386C93.3526 55.5407 93.8708 59.8667 91.865 64.1353C91.5318 63.545 91.235 62.9348 90.9763 62.3082C90.727 61.7039 90.1855 60.7331 89.4358 59.3896C86.5194 54.1593 79.6899 41.9113 83.186 36.9135C84.2274 35.4259 86.8704 33.8964 93.5044 34.7199ZM85.463 6.56009C95.1861 6.77475 102.877 10.4121 108.323 17.3706C112.499 22.708 107.9 46.9939 94.5863 67.9455C94.4524 67.7752 94.3178 67.6055 94.1825 67.4364L94.0139 67.2258C97.4544 61.5439 96.7817 55.9222 96.1828 50.938C95.9367 48.8926 95.7043 46.9606 95.7635 45.1458C95.8246 43.2225 96.0789 41.5727 96.325 39.9775C96.6272 38.0118 96.9348 35.9778 96.8501 33.5801C96.9134 33.3285 96.9389 33.0313 96.9057 32.6786C96.6892 30.3793 94.064 23.4978 88.7134 17.2695C85.7866 13.8627 81.5184 10.0503 75.6907 7.4789C78.1973 6.95933 81.6251 6.47486 85.463 6.56009ZM31.0557 79.946C28.3667 83.1791 26.51 82.5593 25.8993 82.356C21.9205 81.0289 17.3037 72.6193 13.2333 59.2838C9.71126 47.745 7.65306 36.1419 7.4899 32.8882C6.97581 22.5982 9.47016 15.4268 14.9041 11.573C23.7476 5.30175 38.2872 9.05536 44.1295 10.9591C44.0457 11.042 43.9582 11.1195 43.8752 11.2038C34.2879 20.8859 34.5153 37.428 34.539 38.4393C34.5381 38.8295 34.5709 39.3818 34.6156 40.1416C34.7806 42.924 35.0878 48.1023 34.2674 53.9665C33.5054 59.416 35.1853 64.7497 38.8756 68.6004C39.2543 68.9948 39.6524 69.3702 40.0683 69.7252C38.4257 71.4844 34.8558 75.3748 31.0557 79.946ZM41.3006 66.2765C38.3264 63.1728 36.9755 58.8559 37.594 54.4314C38.4599 48.2367 38.1404 42.8415 37.9686 39.9429C37.9445 39.5373 37.923 39.1818 37.9107 38.9015C39.3113 37.6595 45.8017 34.1821 50.4304 35.2427C52.5423 35.7262 53.8294 37.1646 54.3645 39.6384C57.1336 52.4466 54.7309 57.7848 52.8003 62.0749C52.4024 62.9586 52.0264 63.794 51.7056 64.6581L51.4567 65.3262C50.8269 67.0153 50.2408 68.5858 49.8775 70.077C46.7155 70.0679 43.6396 68.7171 41.3006 66.276V66.2765ZM41.786 83.5497C40.8627 83.319 40.0323 82.9184 39.5451 82.5862C39.9521 82.3948 40.6763 82.1341 41.9323 81.8752C48.0107 80.6242 48.9496 79.7409 50.9996 77.1381C51.4695 76.541 52.0023 75.8647 52.7401 75.0407L52.741 75.0398C53.8399 73.8092 54.3426 74.018 55.2541 74.3962C55.9929 74.7016 56.7125 75.6277 57.0042 76.6468C57.1423 77.1281 57.2972 78.0414 56.79 78.7524C52.5077 84.7483 46.2675 84.6713 41.786 83.5497ZM73.5974 113.152C66.1613 114.745 63.5283 110.951 61.7933 106.614C60.6735 103.813 60.1229 91.1863 60.5135 77.2415C60.5185 77.056 60.4921 76.8769 60.441 76.7083C60.3954 76.3753 60.3259 76.046 60.2332 75.723C59.6526 73.6939 58.2375 71.9967 56.5398 71.293C55.8653 71.0136 54.6274 70.5009 53.1398 70.8815C53.457 69.5743 54.0071 68.0981 54.6037 66.4998L54.8539 65.8276C55.1356 65.0696 55.4893 64.2844 55.863 63.4531C57.8833 58.9648 60.6502 52.8171 57.6473 38.9288C56.5225 33.7268 52.7661 31.1864 47.0719 31.7766C43.6583 32.1299 40.535 33.5071 38.9772 34.297C38.6422 34.4665 38.3359 34.6306 38.0497 34.7901C38.4845 29.5489 40.1271 19.7538 46.2716 13.5564C50.1405 9.65513 55.2928 7.72819 61.5704 7.83211C73.9397 8.03446 81.8716 14.3822 86.3481 19.6722C90.2056 24.2302 92.2943 28.822 93.1279 31.2986C86.859 30.6609 82.5954 31.8983 80.4342 34.9884C75.7321 41.7099 83.0065 54.7554 86.5026 61.0253C87.1438 62.1742 87.6971 63.1673 87.8712 63.5894C89.0097 66.3485 90.4836 68.1907 91.5596 69.5351C91.8896 69.9472 92.2096 70.3468 92.4529 70.696C90.5543 71.2433 87.1438 72.508 87.4546 78.8298C87.204 82.0019 85.4215 96.8532 84.5159 102.1C83.3205 109.032 80.7696 111.614 73.5974 113.152V113.152ZM104.636 77.6321C102.695 78.5331 99.4456 79.209 96.3592 79.3544C92.9502 79.5139 91.2146 78.9725 90.8063 78.6393C90.6149 74.6998 92.081 74.2882 93.6329 73.8525C93.8767 73.7842 94.1146 73.7172 94.3443 73.637C94.487 73.7532 94.6433 73.8685 94.8147 73.9815C97.5547 75.7899 102.442 75.985 109.341 74.5608L109.417 74.5457C108.486 75.4158 106.894 76.5834 104.636 77.6321Z" fill="white"/>
    </g>
    <g id="styledComponent">
        <path d="M68.7673 118.279C68.9473 117.872 69.4015 117.589 69.7315 117.246C74.7666 111.967 79.8446 106.735 84.8111 101.391C86.3653 99.9558 87.5662 98.1804 88.32 96.2036C89.0739 94.2269 89.3601 92.1026 89.1563 89.9968C89.0004 89.0951 88.7958 88.2025 88.5435 87.3229C87.1894 88.6084 85.9296 89.7783 84.6611 90.9567C82.6899 92.7908 80.7273 94.6334 78.739 96.4461C77.5665 97.6415 76.059 98.4531 74.4156 98.7737C72.7721 99.0943 71.0701 98.9087 69.5344 98.2416C67.9797 97.6705 66.627 96.6553 65.6443 95.3221C64.6616 93.9889 64.092 92.3965 64.0064 90.7425C63.9604 90.5297 63.8988 90.3206 63.8222 90.1168C62.3095 91.4024 60.8611 92.5851 59.4256 93.8021L29.5877 119.085C29.382 119.261 29.1591 119.479 28.9663 119.65H68.7459L68.6859 119.612C68.4716 119.462 68.583 118.673 68.7673 118.279Z" fill="#FFCEBF"/>
        <path d="M27.1436 118.279C27.4974 117.818 27.9245 117.418 28.4077 117.096L69.7 82.0642C72.5168 79.6731 75.3207 77.2691 78.1118 74.8522C78.4567 74.6118 78.727 74.2791 78.8918 73.8924C79.5594 70.9831 79.654 67.9717 79.1703 65.0263C78.7418 65.3262 78.5104 65.4548 78.3132 65.6648C74.9322 68.6901 71.5683 71.7412 68.1702 74.7494C67.0445 75.8824 65.5885 76.6292 64.0116 76.8825C62.4346 77.1359 60.818 76.8826 59.3941 76.1592C57.9414 75.4734 56.7256 74.3709 55.9014 72.992C55.0773 71.6131 54.682 70.0201 54.766 68.4159V67.0275C54.1447 67.4817 53.6905 67.7859 53.2662 68.1287C36.7396 81.3615 20.2159 94.5842 3.69496 107.797C2.94933 108.393 2.05801 109.721 1.08098 108.431C0.103957 107.141 1.59092 106.61 2.34083 106.01C19.953 91.8774 37.5738 77.7576 55.2031 63.6507C58.0742 61.3496 58.2628 60.3854 56.3944 56.7301L55.2803 57.7757C52.2249 60.6168 49.1353 63.4193 46.1271 66.3075C44.8931 67.4978 43.3476 68.3148 41.6691 68.6641C39.9906 69.0135 38.2476 68.8809 36.6412 68.2818C35.0348 67.6827 33.6306 66.6415 32.5908 65.2784C31.5509 63.9153 30.9178 62.2858 30.7646 60.5782C30.1947 61.0067 29.7019 61.3196 29.2348 61.6838L3.09503 81.9443C2.64419 82.3864 2.13005 82.7591 1.5695 83.0498C1.14643 83.1777 0.692134 83.155 0.283936 82.9856V119.671H27.0922C26.9925 119.451 26.9453 119.21 26.9542 118.969C26.9631 118.727 27.028 118.491 27.1436 118.279Z" fill="#FFCEBF"/>
        <path d="M99.5652 1.82096C98.8367 4.20782 98.1297 6.59897 97.4912 9.01154C96.9014 10.7164 96.97 12.5802 97.6836 14.2371C98.3971 15.8941 99.704 17.2246 101.348 17.9676C106.376 20.6107 112.042 21.798 117.709 21.3958V2.22806C117.646 1.80781 117.669 1.37914 117.777 0.968207C117.897 0.73576 118.049 0.520916 118.227 0.329712H99.5481C99.8352 0.663958 99.7366 1.25103 99.5652 1.82096Z" fill="#FF6196"/>
        <path d="M62.051 42.9976C61.9621 45.137 61.2137 47.1966 59.9084 48.894C55.2418 54.9179 49.8828 60.3719 43.9417 65.1435C42.9836 66.0304 41.7693 66.591 40.4728 66.745C39.1764 66.8989 37.8646 66.6383 36.7254 66.0005C35.5916 65.5161 34.6356 64.6925 33.9887 63.6428C33.3419 62.5932 33.036 61.369 33.113 60.1384C33.2502 58.627 33.8777 57.202 34.8999 56.0803C41.5434 49.7455 48.7414 44.019 56.4074 38.9695C56.9094 38.5758 57.5226 38.3499 58.1601 38.3237C58.7976 38.2976 59.4272 38.4725 59.9598 38.8238C60.6598 39.2585 61.2258 39.8786 61.5949 40.6153C61.9641 41.352 62.1219 42.1766 62.051 42.9976Z" fill="#FF87AF"/>
        <path d="M56.9126 68.97C56.8131 68.0228 56.9347 67.0654 57.2678 66.1731C57.6009 65.2809 58.1365 64.478 58.8324 63.8277C65.3372 57.8281 72.3163 52.3638 79.7013 47.4883C79.9241 47.3468 80.1298 47.2054 80.3741 47.0597C81.0192 46.594 81.8008 46.356 82.5959 46.3832C83.3911 46.4103 84.1546 46.7011 84.7664 47.2097C85.3584 47.7112 85.7772 48.3865 85.9634 49.1396C86.1496 49.8928 86.0936 50.6854 85.8034 51.4049C84.8691 54.5168 83.1448 57.3337 80.7983 59.5811C76.0329 64.2758 71.1753 68.8762 66.2286 73.3795C65.4836 74.1456 64.5051 74.6422 63.4469 74.7911C62.3888 74.9401 61.3111 74.7329 60.3836 74.2022C59.409 73.6958 58.5791 72.9499 57.9719 72.0347C57.3648 71.1194 57.0002 70.0648 56.9126 68.97Z" fill="#FF87AF"/>
        <path d="M87.8344 71.8015C86.6346 73.0871 85.4004 74.3126 84.2477 75.6282C83.9011 76.1367 83.6136 76.683 83.3907 77.2566C84.0249 77.4451 84.7662 77.9422 85.2804 77.7665C87.8987 76.888 90.4527 75.8339 93.3281 74.724C92.7024 76.1638 92.231 77.4922 91.5668 78.7092C88.8305 83.3078 85.4038 87.4587 81.4066 91.0164C79.8868 92.4819 78.3084 93.8832 76.6715 95.2201C75.8046 95.9395 74.7622 96.4157 73.6509 96.6001C72.5396 96.7844 71.3992 96.6702 70.3465 96.2692C69.2938 95.8681 68.3665 95.1947 67.6595 94.3176C66.9525 93.4406 66.4912 92.3916 66.3227 91.2778C66.254 90.6585 66.3087 90.0317 66.4838 89.4337C66.6589 88.8357 66.9507 88.2784 67.3426 87.7939C73.174 81.4614 79.8384 75.9503 87.1531 71.4115C87.242 71.3771 87.3363 71.3582 87.4316 71.3558L87.8344 71.8015Z" fill="#FF87AF"/>
        <path d="M97.6724 54.7335L105.004 22.1659L110.147 23.37L107.494 31.4305C105.017 38.9296 102.51 46.4287 100.093 53.9364C99.6221 55.3248 99.0051 55.5819 97.6724 54.7335Z" fill="#FF6196"/>
        <path d="M89.3857 73.8885C90.1614 70.9274 90.9327 68.1892 91.5841 65.421C92.2189 62.7364 93.4263 60.2207 95.1236 58.0461C96.1649 56.6791 97.3348 57.2234 98.5304 57.519C99.636 57.789 99.9145 58.5989 99.9616 59.6616C100.136 62.6005 99.241 65.5031 97.4419 67.8335C95.3002 70.4887 92.5317 72.5695 89.3857 73.8885Z" fill="#FF6196"/>
        <path d="M119.944 3.83936C120.008 2.88498 119.983 1.92674 119.871 0.976845C119.783 0.711516 119.607 0.483621 119.374 0.329779C119.184 0.175101 118.961 0.0652523 118.723 0.00838844C118.585 -0.0173228 118.393 0.124089 118.208 0.325493C118.03 0.516698 117.878 0.731542 117.758 0.96399C117.65 1.37492 117.627 1.80359 117.69 2.22384V21.3873C112.023 21.7895 106.357 20.6022 101.329 17.9591C99.685 17.2161 98.3781 15.8856 97.6646 14.2286C96.951 12.5717 96.8824 10.7079 97.4722 9.00304C98.1107 6.59046 98.8178 4.19932 99.5462 1.81246C99.7177 1.24253 99.8162 0.655454 99.5462 0.321208C99.3961 0.158494 99.1888 0.0602123 98.9677 0.0469556C98.6847 0.0500088 98.4105 0.146413 98.1878 0.321208C97.8674 0.512888 97.6121 0.796593 97.4551 1.1354C96.598 3.70652 95.8438 6.30336 95.1882 8.9259C94.9407 9.95936 94.874 11.0279 94.9911 12.0841C95.1569 13.9952 95.8676 15.8186 97.0389 17.3377C98.2102 18.8569 99.7928 20.0081 101.599 20.6545C102.409 20.993 102.884 21.3273 102.657 22.3943C102.344 23.7484 102.04 25.1026 101.732 26.461C99.632 35.6656 97.5436 44.8745 95.4667 54.0877C95.4082 54.4985 95.2275 54.8822 94.9482 55.189C93.5793 56.2771 92.4291 57.6148 91.5586 59.1314C90.4493 61.1327 89.6817 63.3052 89.2875 65.5592C89.2118 66.2782 88.952 66.9655 88.5331 67.5548C88.1143 68.144 87.5505 68.6153 86.8963 68.9231C85.1094 69.8273 83.4682 70.9971 81.4841 72.2141C81.6164 69.8282 81.5906 67.4361 81.407 65.0535C81.256 64.3206 81.288 63.5618 81.5003 62.8442C81.7126 62.1267 82.0985 61.4725 82.624 60.9397C85.2375 58.3506 87.1005 55.1015 88.0148 51.538C88.2878 50.712 88.3627 49.8333 88.2333 48.9729C88.104 48.1126 87.774 47.2948 87.27 46.5856C86.7661 45.8764 86.1023 45.2957 85.3325 44.8905C84.5626 44.4853 83.7081 44.267 82.8382 44.2531C81.4298 44.2374 80.047 44.6304 78.8573 45.3844C74.7683 48.1767 70.7504 51.0715 66.8073 54.0663C64.4633 55.8318 62.2564 57.7858 59.9852 59.637C59.8873 59.5319 59.8025 59.4154 59.7324 59.2899C59.689 58.9744 59.604 58.6661 59.4796 58.3729C57.5812 55.4418 58.8968 53.3121 60.958 51.1223C63.1053 48.8714 64.2919 45.8727 64.2661 42.7619C64.3327 41.1769 63.8363 39.6194 62.8649 38.3653C62.3474 37.7286 61.7096 37.2001 60.988 36.8097C59.9629 36.2487 58.7908 36.0145 57.6289 36.1386C56.467 36.2627 55.3708 36.7391 54.4873 37.5039L53.2917 38.361C50.5621 40.315 47.7981 42.2177 45.1713 44.3089C41.3364 47.3705 37.5841 50.5341 33.9183 53.7963C32.2042 55.309 30.953 57.3744 29.1746 58.78C19.9014 66.1034 10.5297 73.294 1.1922 80.5317C0.871132 80.7232 0.575909 80.9551 0.313735 81.2216C0.286745 81.2606 0.263774 81.3023 0.245172 81.3459C0.0480521 81.8044 -0.119071 82.5629 0.112331 82.8414C0.169054 82.9019 0.23761 82.95 0.313735 82.9828C0.721934 83.1523 1.17623 83.175 1.5993 83.0471C2.15985 82.7563 2.67399 82.3837 3.12483 81.9415L29.2646 61.6811C29.7317 61.3168 30.2245 60.9869 30.7944 60.5755C30.9476 62.2831 31.5807 63.9125 32.6206 65.2757C33.6604 66.6388 35.0646 67.68 36.671 68.2791C38.2774 68.8782 40.0204 69.0107 41.6989 68.6614C43.3774 68.312 44.9229 67.4951 46.1569 66.3048C49.1565 63.4166 52.2547 60.6141 55.3101 57.773L56.4242 56.7274C58.2926 60.3827 58.104 61.3468 55.2329 63.648C37.5893 77.7663 19.9585 91.8875 2.34064 106.012C1.59073 106.611 0.108046 107.156 1.08079 108.433C2.05353 109.71 2.94914 108.394 3.69476 107.798C20.2242 94.5972 36.7423 81.3787 53.2489 68.1432C53.6774 67.8003 54.1273 67.4961 54.7487 67.0419V68.4303C54.6647 70.0345 55.0599 71.6275 55.8841 73.0064C56.7082 74.3853 57.924 75.4879 59.3767 76.1736C60.8007 76.897 62.4173 77.1503 63.9942 76.897C65.5711 76.6436 67.0271 75.8968 68.1528 74.7638C71.551 71.7642 74.9149 68.7045 78.2959 65.6792C78.5102 65.4863 78.7587 65.3406 79.153 65.0407C79.6367 67.9861 79.542 70.9975 78.8744 73.9068C78.7096 74.2936 78.4394 74.6262 78.0945 74.8667C75.3005 77.2807 72.4966 79.6847 69.6826 82.0787L28.4075 117.115C27.9243 117.437 27.4972 117.836 27.1434 118.297C27.0305 118.507 26.9672 118.741 26.9582 118.979C26.9493 119.217 26.9951 119.455 27.092 119.673C27.2856 119.818 27.5094 119.917 27.7468 119.964C27.9842 120.011 28.2291 120.004 28.4633 119.943C28.648 119.889 28.8181 119.794 28.9603 119.664C29.1746 119.493 29.3889 119.274 29.5817 119.099L59.4196 93.8158C60.8551 92.5988 62.3035 91.399 63.8162 90.1306C63.8928 90.3343 63.9544 90.5434 64.0005 90.7562C64.0861 92.4102 64.6556 94.0027 65.6383 95.3358C66.6211 96.669 67.9737 97.6842 69.5284 98.2553C71.0641 98.9225 72.7662 99.108 74.4096 98.7874C76.053 98.4669 77.5606 97.6552 78.733 96.4598C80.7213 94.6472 82.684 92.8045 84.6552 90.9705C85.9407 89.792 87.1834 88.6093 88.5376 87.3366C88.7898 88.2162 88.9944 89.1089 89.1503 90.0106C89.3473 92.1094 89.0578 94.2253 88.3042 96.1941C87.5506 98.1628 86.3532 99.9313 84.8051 101.362C79.8386 106.71 74.7606 111.942 69.7255 117.217C69.3955 117.56 68.9413 117.843 68.7613 118.25C68.5813 118.657 68.4657 119.454 68.6799 119.626L68.7399 119.664C69.1892 119.883 69.6945 119.959 70.1883 119.883C70.3267 119.854 70.45 119.777 70.5354 119.664C70.6554 119.54 70.7711 119.386 70.8868 119.27C74.9663 115.053 79.0672 110.858 83.1168 106.611C84.7513 104.955 86.288 103.205 87.7191 101.371C89.5851 99.3049 90.8224 96.7492 91.2855 94.0042C91.7486 91.2591 91.4181 88.439 90.3331 85.8754C90.2164 85.3037 90.3304 84.7092 90.6502 84.2213C90.9287 83.7413 91.2372 83.2742 91.5543 82.8114C92.569 81.494 93.4141 80.0544 94.0698 78.5262C95.3368 74.7758 97.2817 71.2898 99.8076 68.2417C100.969 66.7695 101.768 65.0448 102.14 63.207C102.512 61.3692 102.447 59.4696 101.95 57.6616C101.775 56.9741 101.775 56.2535 101.95 55.5661C104.119 48.8512 106.351 42.1577 108.562 35.4599L111.519 26.4867L112.432 23.7142C114.377 23.7142 116.211 23.6756 118.037 23.7142C119.554 23.757 120.017 23.0457 120 21.5715C119.91 15.658 119.944 9.74866 119.944 3.83936ZM43.9371 65.1435C42.9791 66.0304 41.7647 66.591 40.4683 66.745C39.1719 66.8989 37.86 66.6383 36.7208 66.0006C35.587 65.5162 34.631 64.6925 33.9842 63.6429C33.3373 62.5932 33.0314 61.369 33.1084 60.1384C33.2457 58.6271 33.8732 57.202 34.8953 56.0803C41.5388 49.7455 48.7368 44.019 56.4028 38.9695C56.8212 38.6737 57.2972 38.4693 57.7998 38.3696C58.1369 38.3074 58.4825 38.3074 58.8196 38.3696C59.2234 38.4482 59.6086 38.6023 59.9552 38.8238C60.656 39.2588 61.2224 39.8796 61.5916 40.6171C61.9607 41.3547 62.1182 42.1802 62.0464 43.0019C61.9576 45.1413 61.2092 47.2009 59.9038 48.8983C55.237 54.9207 49.878 60.3733 43.9371 65.1435ZM66.2202 73.4097C65.4752 74.1758 64.4966 74.6724 63.4385 74.8213C62.3803 74.9703 61.3027 74.7631 60.3752 74.2324C59.3988 73.7249 58.5678 72.977 57.9605 72.0593C57.3533 71.1416 56.9897 70.0844 56.9042 68.9874C56.8047 68.0401 56.9263 67.0828 57.2594 66.1905C57.5925 65.2982 58.1281 64.4954 58.8239 63.8451C65.3288 57.8454 72.3078 52.3811 79.6929 47.5056C79.9157 47.3642 80.1214 47.2228 80.3657 47.0771C81.0107 46.6114 81.7923 46.3734 82.5875 46.4005C83.3826 46.4277 84.1462 46.7185 84.758 47.2271C85.35 47.7285 85.7688 48.4038 85.955 49.157C86.1412 49.9101 86.0852 50.7028 85.795 51.4223C84.8607 54.5342 83.1364 57.351 80.7899 59.5985C76.0633 64.3208 71.1482 68.8674 66.2288 73.3925L66.2202 73.4097ZM91.5501 78.7276C88.8175 83.319 85.3967 87.4638 81.407 91.0176C79.8872 92.4831 78.3088 93.8844 76.6718 95.2214C75.8049 95.9408 74.7625 96.417 73.6512 96.6013C72.5399 96.7856 71.3996 96.6714 70.3469 96.2704C69.2942 95.8694 68.3669 95.1959 67.6599 94.3189C66.9529 93.4419 66.4915 92.3928 66.323 91.279C66.2543 90.6597 66.3091 90.0329 66.4842 89.435C66.6592 88.837 66.9511 88.2796 67.3429 87.7951C73.1743 81.4627 79.8387 75.9515 87.1534 71.4128C87.2424 71.3783 87.3366 71.3594 87.432 71.3571L87.8605 71.7856C86.6606 73.0712 85.4265 74.2967 84.2738 75.6123C83.9272 76.1208 83.6396 76.6671 83.4167 77.2407C84.0509 77.4292 84.7923 77.9263 85.3065 77.7506C87.3763 77.0564 89.4117 76.2508 91.5929 75.3937L93.3541 74.7081C92.6942 76.1651 92.2228 77.4935 91.5586 78.7105L91.5501 78.7276ZM97.4336 67.8646C95.8352 69.8996 93.8317 71.5806 91.5501 72.8012C90.8444 73.1954 90.1202 73.564 89.3775 73.9068C90.1402 70.9885 90.903 68.2846 91.5501 65.5506L91.5758 65.4392C92.2106 62.7546 93.418 60.2389 95.1153 58.0644C96.1566 56.6974 97.3265 57.2416 98.5221 57.5373C99.6277 57.8073 99.9062 58.6172 99.9533 59.6799C100.129 62.6162 99.2372 65.5171 97.4422 67.8475L97.4336 67.8646ZM107.461 31.4404C104.984 38.9395 102.477 46.4386 100.06 53.9463C99.6062 55.3561 98.9892 55.6132 97.6565 54.7648L104.011 26.5124L104.988 22.1758L110.131 23.3799L109.098 26.5124L107.461 31.4404Z" fill="#1F2626"/>
    </g>
    <g id="reactNative">
        <path d="M59.9999 63.6073C65.9173 63.6073 70.7142 58.8103 70.7142 52.893C70.7142 46.9757 65.9173 42.1787 59.9999 42.1787C54.0826 42.1787 49.2856 46.9757 49.2856 52.893C49.2856 58.8103 54.0826 63.6073 59.9999 63.6073Z" fill="#F5DE19"/>
        <path d="M60 77.4582C47.122 77.7697 34.2763 76.0338 21.9429 72.3153C16.2455 70.5093 10.9317 67.6642 6.27 63.9239C4.49113 62.6461 3.00974 60.9987 1.92747 59.0945C0.845197 57.1904 0.18767 55.0746 0 52.8925C0 45.8082 7.78286 38.8653 20.82 34.3225C33.4831 30.2971 46.714 28.3462 60 28.5453C73.1087 28.3622 86.1623 30.2778 98.6657 34.2196C104.153 35.9689 109.286 38.6764 113.829 42.2168C115.577 43.4349 117.036 45.0227 118.103 46.8676C119.169 48.7125 119.817 50.7694 120 52.8925C120 60.2553 111.3 67.7168 97.2857 72.3539C85.1911 75.9512 72.6164 77.6726 60 77.4582ZM60 33.671C47.2891 33.5011 34.6321 35.3558 22.5043 39.1653C10.5043 43.3525 5.12571 49.0782 5.12571 52.8796C5.12571 56.8568 10.9071 63.1096 23.6014 67.451C35.4003 70.9904 47.6855 72.638 60 72.3325C72.0703 72.5483 84.1025 70.9151 95.6786 67.4896C108.857 63.1225 114.857 56.861 114.857 52.8925C114.641 51.5306 114.145 50.2283 113.4 49.068C112.655 47.9076 111.677 46.9144 110.529 46.151C106.465 43.0102 101.879 40.6106 96.9814 39.0625C85.0201 35.3071 72.5356 33.4871 60 33.671Z" fill="#F5DE19"/>
        <path d="M35.6555 106.331C33.6562 106.377 31.6805 105.892 29.9298 104.925C23.7927 101.385 21.6669 91.1767 24.2426 77.6124C27.0826 64.6313 32.0032 52.1951 38.8141 40.7852C45.2029 29.3385 53.382 18.9877 63.0412 10.1252C67.2976 6.24538 72.2078 3.1504 77.5441 0.983791C79.4742 0.0792446 81.5797 -0.389648 83.7112 -0.389648C85.8428 -0.389648 87.9482 0.0792446 89.8784 0.983791C96.2598 4.66093 98.3727 15.9238 95.3941 30.3795C92.4665 42.6562 87.6736 54.4114 81.1827 65.2352C75.0187 76.5468 67.0971 86.8074 57.7141 95.6338C53.3032 99.6657 48.1841 102.846 42.6155 105.015C40.3862 105.843 38.033 106.287 35.6555 106.331ZM43.2541 43.3309C36.7574 54.2566 32.0412 66.1468 29.2827 78.5552C26.9127 91.0481 29.1884 98.5609 32.4969 100.472C35.9255 102.457 44.2484 100.575 54.3541 91.7467C63.3113 83.2907 70.8722 73.4689 76.7555 62.6466C82.9738 52.2989 87.5713 41.0601 90.3884 29.3209C93.1912 15.7138 90.7698 7.38236 87.3326 5.40236C86.0444 4.90876 84.6678 4.6878 83.2898 4.75346C81.9118 4.81911 80.5624 5.16995 79.3269 5.78379C74.577 7.74385 70.2101 10.5265 66.4269 14.0038C57.1984 22.4929 49.3856 32.4021 43.2841 43.3566L43.2541 43.3309Z" fill="#F5DE19"/>
        <path d="M84.326 106.387C78.5188 106.387 71.1431 102.872 63.4631 96.2682C53.6347 87.3251 45.3173 76.8513 38.8331 65.2525C32.1077 53.9997 27.226 41.7434 24.3731 28.9482C23.1359 23.3189 22.9066 17.5147 23.696 11.8053C23.8785 9.68738 24.5234 7.63523 25.5853 5.79362C26.6471 3.95201 28.1001 2.36577 29.8417 1.14678C36.2145 -2.54322 47.0274 1.24963 58.0631 11.0468C67.2371 19.7133 75.0276 29.7355 81.1631 40.7639C87.8844 51.754 92.8173 63.7419 95.7774 76.2796C97.0679 82.1155 97.267 88.1399 96.3645 94.0482C96.1498 96.2271 95.4665 98.3338 94.3613 100.224C93.2561 102.114 91.7553 103.743 89.9617 104.998C88.2395 105.953 86.2944 106.432 84.326 106.387ZM43.2688 62.6725C49.4892 73.7572 57.4343 83.7812 66.806 92.3682C76.4445 100.661 84.0903 102.444 87.3774 100.511C90.806 98.5182 93.3345 90.3839 90.7288 77.2225C87.874 65.2522 83.1426 53.8092 76.7103 43.3182C70.8552 32.763 63.4191 23.1662 54.6603 14.8611C44.2717 5.63821 35.846 3.57678 32.4131 5.56535C31.3432 6.43484 30.4651 7.51674 29.8344 8.74272C29.2037 9.9687 28.8341 11.3121 28.7488 12.6882C28.0674 17.78 28.2894 22.9521 29.4045 27.9668C32.1487 40.2031 36.8306 51.9223 43.2731 62.6811L43.2688 62.6725Z" fill="#F5DE19"/>
    </g>
    <g id="jest">
        <path d="M102.525 59.083C102.525 52.9145 97.5238 47.9135 91.3553 47.9135C90.9581 47.9135 90.567 47.9348 90.1809 47.9756L105.522 2.72803H40.327L55.647 47.936C55.421 47.9218 55.1945 47.9144 54.968 47.9139C48.7995 47.9139 43.7986 52.914 43.7986 59.0834C43.7986 64.0695 47.0665 68.2911 51.5764 69.7273C49.1945 73.8533 46.197 77.5697 42.7939 80.7807C38.1662 85.146 32.8702 88.4565 27.1422 90.496C20.3223 86.9926 17.102 79.2012 20.0077 72.3698C20.3359 71.5981 20.6709 70.8162 20.9911 70.0377C25.9317 68.8846 29.6137 64.4555 29.6137 59.1633C29.6137 52.9944 24.6128 47.9939 18.4439 47.9939C12.2749 47.9939 7.2744 52.9944 7.2744 59.1633C7.2744 62.9461 9.15624 66.2876 12.0334 68.3081C9.26891 74.6024 5.20505 81.1901 3.93887 88.8251C2.4214 97.9749 3.93377 107.688 11.8476 113.173C30.2783 125.947 50.2847 105.254 71.3786 100.052C79.0234 98.1671 87.4151 98.4707 94.1504 94.5701C99.2083 91.6406 102.543 86.7855 103.489 81.3351C104.424 75.9507 103.061 70.5896 99.9269 66.2425C101.608 64.2361 102.528 61.7009 102.525 59.083Z" fill="#99425B"/>
        <path d="M100.802 80.8682C99.9803 85.6005 97.0576 89.7336 92.7837 92.2094C88.7993 94.5169 84.025 95.2057 78.9696 95.9344C76.2617 96.3247 73.4614 96.7291 70.7258 97.4034C63.4927 99.187 56.4866 102.667 49.7118 106.032C36.1528 112.767 24.4434 118.583 13.4023 110.931C5.31458 105.325 5.68789 94.9544 6.63008 89.2715C7.5034 84.006 9.86442 79.1569 12.1472 74.4676C12.5361 73.6706 12.9219 72.8721 13.3045 72.0721C14.4553 72.5321 15.6627 72.835 16.8943 72.9726C14.5703 80.6424 18.2251 88.9819 25.8958 92.9225L26.946 93.462L28.0574 93.0662C34.1217 90.9063 39.7099 87.4411 44.6662 82.7645C47.8699 79.7419 50.6246 76.3979 52.8887 72.8247C53.577 72.9285 54.2722 72.9807 54.9683 72.9807C62.0088 72.9807 67.8389 67.7174 68.7411 60.9197C71.623 60.8142 74.6838 60.8134 77.5823 60.9188C78.4837 67.7174 84.3146 72.9811 91.3551 72.9811C94.299 72.9811 97.0295 72.0585 99.2792 70.4913C100.841 73.6882 101.424 77.2852 100.802 80.8682ZM18.4445 50.7217C23.0994 50.7217 26.886 54.5088 26.886 59.1637C26.886 60.8355 26.3954 62.3946 25.5531 63.7076C24.15 65.896 21.7648 67.396 19.0245 67.5831C18.8327 67.5958 18.6393 67.6052 18.4445 67.6052C17.4071 67.6052 16.4135 67.416 15.4946 67.0724C13.6442 66.3766 12.0946 65.0568 11.1132 63.3406C10.3844 62.0692 10.0015 60.6291 10.0026 59.1637C10.0026 54.5088 13.7897 50.7217 18.4445 50.7217ZM46.5272 59.0833C46.5272 54.8541 49.6535 51.3425 53.7157 50.7353C54.1247 50.6737 54.5431 50.6418 54.9687 50.6418C57.675 50.6418 60.0845 51.9237 61.6296 53.9102C62.0166 54.4055 62.3471 54.9424 62.6151 55.511C63.1398 56.6287 63.4113 57.8485 63.4102 59.0833C63.4102 59.7581 63.3286 60.4141 63.1785 61.0434C62.3558 64.4873 59.419 67.12 55.8203 67.4823C55.5406 67.5104 55.2565 67.5248 54.9687 67.5248C53.345 67.5262 51.7558 67.0563 50.3938 66.1723C48.0697 64.6668 46.5272 62.0523 46.5272 59.0833ZM81.7597 49.0448C79.9227 50.7983 78.6006 53.021 77.9369 55.4723C74.7551 55.355 71.57 55.355 68.3882 55.4723C67.6739 52.8226 66.1934 50.4849 64.2015 48.7094L72.9368 31.0466L81.7597 49.0453V49.0448ZM44.1322 5.45675H101.717L88.1161 45.5703C87.5309 45.7104 86.9556 45.8887 86.3937 46.1039L72.958 18.6956L59.4841 45.9402C58.8967 45.7386 58.2964 45.5768 57.6873 45.4559L44.1322 5.45675ZM99.7966 59.0837C99.7966 59.9298 99.6703 60.747 99.4378 61.5187C98.886 63.3355 97.7401 64.9144 96.1839 66.0023C94.7694 66.9949 93.0831 67.5268 91.3551 67.5252C87.4575 67.5252 84.1696 64.8691 83.2027 61.2721C83.0107 60.5585 82.9135 59.8227 82.9136 59.0837C82.9136 57.9298 83.1466 56.8294 83.5675 55.8269C83.7847 55.3139 84.0522 54.8237 84.366 54.3634C85.8852 52.121 88.4486 50.6422 91.3551 50.6422C91.6217 50.6422 91.8844 50.6558 92.1451 50.6805C96.4309 51.0797 99.797 54.695 99.797 59.0837H99.7966ZM105.253 59.0837C105.253 52.2987 100.364 46.6375 93.9253 45.4283L109.328 0H36.5223L51.9486 45.5201C45.7334 46.9032 41.0713 52.4573 41.0713 59.0833C41.0713 64.0588 43.7006 68.4287 47.6412 70.8846C45.7457 73.7086 43.4982 76.366 40.9225 78.7963C36.8374 82.6497 32.2867 85.5724 27.3805 87.4955C22.4387 84.3913 20.3498 78.537 22.519 73.4374L22.6891 73.0377L23.008 72.2877C28.4358 70.3943 32.3419 65.2284 32.3419 59.1637C32.3419 51.5002 26.1075 45.2658 18.4445 45.2658C10.7811 45.2658 4.54671 51.5002 4.54671 59.1637C4.54671 63.0315 6.13688 66.5342 8.6956 69.0563C8.21838 70.0674 7.73395 71.0751 7.24234 72.0793C4.90258 76.8843 2.25116 82.3304 1.24817 88.3786C-0.743372 100.39 2.46928 109.992 10.2947 115.415C15.0431 118.706 19.8655 120 24.7181 120C33.8552 120 43.0985 115.409 52.1391 110.919C58.6499 107.685 65.3826 104.341 72.0328 102.701C74.5074 102.091 77.0534 101.723 79.749 101.335C85.0948 100.563 90.6221 99.7662 95.5185 96.9306C101.194 93.6431 105.079 88.1286 106.178 81.8019C107.121 76.3702 105.986 70.9301 103.218 66.316C104.552 64.1395 105.256 61.636 105.253 59.0833L105.253 59.0837Z" fill="white"/>
    </g>
    <g id="expressjs">
        <path d="M37.2184 27.3891V1.13491H38.6425V5.26472C38.8106 5.0816 38.9659 4.88708 39.1073 4.68256C40.2967 2.21493 42.8053 0.657562 45.5441 0.688322C48.791 0.591485 51.4295 1.7934 52.98 4.68256C53.9667 6.47743 54.5097 8.4823 54.5636 10.5298C54.6175 12.5773 54.1808 14.6079 53.2899 16.4522C51.8453 19.69 48.2772 21.2998 44.4572 20.7085C43.2684 20.6074 42.1239 20.2102 41.1281 19.5531C40.1322 18.896 39.3169 17.9999 38.7564 16.9467V27.388L37.2184 27.3891ZM38.6425 10.4221L38.9615 13.505C39.5243 17.0139 41.5988 19.0873 44.856 19.477C46.3856 19.7284 47.955 19.4417 49.2968 18.6655C50.6386 17.8894 51.6698 16.672 52.2144 15.2207C53.4813 12.2017 53.3879 8.78388 51.9638 5.83549C51.3825 4.53455 50.3935 3.45817 49.1464 2.76902C47.8992 2.07987 46.4616 1.81539 45.0508 2.01556C43.7266 2.11189 42.4652 2.61826 41.4419 3.46431C40.4187 4.31036 39.6843 5.4541 39.3408 6.73664C39.0376 7.95034 38.8044 9.1805 38.6425 10.421V10.4221ZM83.6409 13.9903C83.4249 15.8388 82.5449 17.546 81.1646 18.7943C79.7842 20.0427 77.9974 20.7472 76.1366 20.7768C70.1646 21.0776 67.362 17.1119 66.9166 12.5355C66.6068 10.0502 67.0102 7.52817 68.0797 5.26358C68.8241 3.71008 70.0438 2.43389 71.5619 1.6199C73.0801 0.805911 74.8181 0.496388 76.5239 0.73617C78.1456 0.874013 79.6829 1.51837 80.9182 2.57806C82.1535 3.63775 83.0243 5.05909 83.4073 6.64094C83.7107 8.08192 83.934 9.5386 84.0761 11.0043H68.3919C68.1014 15.1535 70.3309 18.4892 73.4912 19.2935C77.4273 20.2619 80.7916 18.5564 82.0129 14.814C82.284 13.8536 82.7785 13.718 83.6511 13.9903H83.6409ZM68.3805 9.67592H82.4093C82.3216 5.2556 79.5692 2.0429 75.8358 2.00644C71.6206 1.93809 68.5639 5.02206 68.3805 9.67592ZM86.5403 14.0871H87.9154C87.9659 15.1002 88.2949 16.0797 88.8661 16.9178C89.4373 17.756 90.2287 18.4204 91.1531 18.8378C92.3139 19.3602 93.5775 19.6141 94.8499 19.5805C96.1224 19.547 97.3708 19.2269 98.5025 18.6442C99.1193 18.3664 99.6361 17.906 99.9828 17.3251C100.33 16.7442 100.49 16.0709 100.441 15.3961C100.477 14.7454 100.299 14.1007 99.9354 13.56C99.5715 13.0193 99.0413 12.612 98.425 12.3999C96.9121 11.8371 95.3034 11.5272 93.762 11.0328C92.1581 10.5761 90.5897 10.0027 89.0694 9.31706C86.5858 8.10489 86.432 3.38381 89.2437 1.8891C90.6834 1.07671 92.3036 0.637749 93.9565 0.612277C95.6094 0.586805 97.2424 0.975629 98.7064 1.74327C100.522 2.74582 101.526 4.77028 101.228 6.82436H100.048C100.048 6.7674 99.9414 6.71727 99.9414 6.65917C99.7955 2.89962 96.6352 1.72391 93.2425 2.05429C92.2172 2.16822 91.2454 2.47809 90.334 2.93608C89.7861 3.18628 89.3296 3.60059 89.0275 4.12166C88.7254 4.64274 88.5928 5.24482 88.6479 5.8446C88.649 6.44482 88.8361 7.02996 89.1833 7.51957C89.5305 8.00917 90.0209 8.37922 90.5869 8.57882C92.0679 9.12224 93.6401 9.47086 95.1724 9.89694L98.875 10.8653C99.7166 11.1415 100.454 11.6667 100.991 12.3714C101.528 13.076 101.838 13.927 101.88 14.8117C102.177 16.7997 101.163 18.7535 99.3695 19.6592C96.1317 21.4912 90.7988 21.007 88.4235 18.6909C87.2079 17.4684 86.53 15.8085 86.5437 14.086L86.5403 14.0871ZM119.328 6.8255H118.038C118.038 6.65119 117.97 6.48372 117.951 6.35043C117.93 5.38374 117.578 4.45351 116.953 3.71571C116.328 2.97792 115.468 2.47741 114.518 2.29809C112.726 1.78403 110.814 1.87614 109.079 2.56012C108.393 2.75641 107.79 3.16944 107.358 3.73744C106.926 4.30545 106.69 4.99792 106.685 5.71131C106.66 6.41179 106.878 7.09925 107.302 7.65746C107.726 8.21566 108.33 8.61034 109.011 8.77477L114.906 10.2877C115.543 10.4406 116.171 10.6316 116.785 10.8596C118.665 11.5432 119.941 13.2885 119.998 15.2833C120.026 16.2598 119.758 17.2219 119.23 18.0434C118.701 18.8648 117.936 19.5071 117.036 19.8859C115.668 20.5074 114.185 20.8362 112.682 20.8513C111.18 20.8664 109.691 20.5675 108.31 19.9737C107.175 19.4842 106.217 18.6587 105.565 17.6083C104.914 16.5579 104.599 15.333 104.665 14.0985H105.925C106.399 16.3827 107.967 18.2853 110.119 19.1853C112.272 20.0853 114.729 19.8643 116.686 18.5974C117.273 18.2921 117.761 17.8248 118.091 17.251C118.421 16.6772 118.579 16.0208 118.548 15.3597C118.577 14.7084 118.393 14.0655 118.024 13.5282C117.654 12.991 117.12 12.5889 116.502 12.3828C114.989 11.82 113.38 11.5204 111.839 11.0157C110.226 10.5661 108.648 9.9991 107.118 9.31934C104.693 8.12653 104.5 3.44419 107.263 1.95062C108.721 1.10413 110.373 0.649376 112.058 0.63061C113.743 0.611844 115.405 1.02971 116.881 1.84353C117.725 2.34737 118.405 3.08582 118.837 3.96895C119.269 4.85207 119.435 5.84177 119.314 6.81753L119.328 6.8255ZM34.875 20.3029C34.3673 20.4949 33.807 20.4944 33.2997 20.3015C32.7924 20.1086 32.3732 19.7367 32.1214 19.2559L27.1086 12.3236L26.3818 11.3552L20.5647 19.2662C20.3276 19.7263 19.9312 20.0843 19.4494 20.2734C18.9676 20.4625 18.4335 20.4698 17.9467 20.2938L25.4408 10.2399L18.4685 1.15542C19.5029 0.78174 20.6559 1.18732 21.2312 2.12379L26.4262 9.14161L31.652 2.15113C31.8908 1.69894 32.2876 1.35031 32.7667 1.17156C33.2458 0.992798 33.774 0.99638 34.2506 1.18162L31.5449 4.77142L27.8799 9.54149C27.7782 9.63233 27.6968 9.74362 27.6411 9.8681C27.5854 9.99257 27.5565 10.1274 27.5565 10.2638C27.5565 10.4002 27.5854 10.535 27.6411 10.6595C27.6968 10.7839 27.7782 10.8952 27.8799 10.9861L34.8601 20.3029H34.875ZM66.6944 1.05858V2.42569C65.7138 2.36137 64.7306 2.50338 63.8083 2.84254C62.886 3.1817 62.0451 3.71047 61.3398 4.39474C60.6345 5.07901 60.0805 5.90357 59.7135 6.81519C59.3466 7.7268 59.1749 8.70523 59.2095 9.68732C59.2095 12.8803 59.2095 16.0732 59.2095 19.2662V20.3519H57.823V1.14402H59.1901V5.08016C60.8671 2.20923 63.4555 1.14403 66.7035 1.06656L66.6944 1.05858ZM0.00227889 10.1145L0.612921 7.09892C2.28991 1.13605 9.12545 -1.34525 13.8283 2.34822C16.5819 4.51053 17.2689 7.57399 17.1344 11.0259H1.62116C1.37053 17.1916 5.81933 20.9147 11.5099 19.0144C13.3851 18.3309 14.7967 16.7724 15.2615 14.8356C15.5623 13.8673 16.059 13.7009 16.9681 13.9812C16.8165 15.1616 16.3992 16.2923 15.7476 17.2882C15.096 18.2841 14.2271 19.1193 13.2063 19.731C11.5197 20.6534 9.58459 21.0189 7.67775 20.7752C5.77091 20.5315 3.98995 19.6911 2.58953 18.3742C1.2042 16.8168 0.367981 14.8482 0.205067 12.769C0.205067 12.4272 0.0911409 12.1082 0.0113928 11.8006C0.00379779 11.2257 0 10.6637 0 10.1145H0.00227889ZM1.64053 9.69757H15.6693C15.5816 5.22826 12.7608 2.05771 8.99899 2.02809C4.81108 1.97113 1.81484 5.07218 1.63028 9.6782L1.64053 9.69757Z" fill="white"/>
    </g>
    <g id="rocketWebFull" >
        <g>
            <path class="st0" d="M603.64,34.3c28.37,0,48.05,20.92,48.05,46.46c0,17.73-9.22,32.27-23.94,39.72l28.01,48.59h-39.19l-25-43.09
			h-7.63v43.09h-33.69V34.3H603.64z M583.95,99.73h17.91c11.17,0,16.14-11.35,16.14-18.97c0-7.27-4.79-20.21-16.14-20.21h-17.91
			V99.73z" fill="white"/>
            <path class="st0" d="M677.03,101.68c0-38.12,31.03-69.15,69.15-69.15c38.12,0,69.16,31.03,69.16,69.15
			c0,38.13-31.03,69.16-69.16,69.16C708.06,170.84,677.03,139.81,677.03,101.68z M746.18,137.15c19.51,0,35.46-15.96,35.46-35.46
			c0-19.5-15.96-35.46-35.46-35.46c-19.5,0-35.46,15.96-35.46,35.46C710.72,121.19,726.68,137.15,746.18,137.15z" fill="white"/>
            <path class="st0" d="M841.91,101.68c0-38.12,31.03-69.15,69.15-69.15c20.92,0,39.54,9.22,52.13,23.76l-23.93,23.94
			c-6.38-8.51-16.67-14.01-28.2-14.01c-19.5,0-35.46,15.96-35.46,35.46c0,19.51,15.96,35.46,35.46,35.46
			c11.53,0,21.81-5.67,28.2-14.01l23.93,23.94c-12.59,14.54-31.21,23.76-52.13,23.76C872.94,170.84,841.91,139.81,841.91,101.68z" fill="white"/>
            <path class="st0" d="M989.76,169.06V34.3h33.69v53.02l47.52-53.02h43.8l-57.1,64.37l57.1,70.4h-41.85l-37.77-45.04l-11.7,12.77
			v32.27H989.76z" fill="white"/>
            <path class="st0" d="M1141.35,169.06V34.3h100.19v29.79h-66.49v24.29h53.02v26.6h-53.02v24.29h66.49v29.79H1141.35z" fill="white"/>
            <path class="st0" d="M1364.93,34.3v29.79h-36v104.97h-33.69V64.09h-36V34.3H1364.93z" fill="white"/>
            <path class="st0" d="M1425.91,34.3l22.34,68.8l19.68-68.8h23.41l20.39,68.8l21.99-68.8h34.75l-42.91,134.76h-25l-20.75-67.56
			l-20.57,67.56h-24.82L1391.51,34.3H1425.91z" fill="white"/>
            <path class="st0" d="M1595.04,169.06V34.3h100.19v29.79h-66.49v24.29h53.02v26.6h-53.02v24.29h66.49v29.79H1595.04z" fill="white"/>
            <path class="st0" d="M1721.8,169.06V34.3h48.41c31.03,0,45.39,17.73,45.39,39.54c0,3.9-3.9,19.5-19.15,20.21
			c22.7,0.71,32.45,19.86,32.45,30.5c0,30.5-20.75,44.51-48.94,44.51H1721.8z M1770.74,85.55c9.4,0,11.17-9.04,11.17-12.59
			c0-6.03-5.85-12.41-11.35-12.41h-15.07v25H1770.74z M1755.49,142.82h24.12c7.62,0,15.6-6.92,15.6-17.91
			c0-6.74-6.92-17.2-16.32-17.2h-23.41V142.82z" fill="white"/>
        </g>
        <g>
            <g>
                <g>
                    <path class="st0" d="M448.38,227.16l-8.48,8.48c-4.19,4.19-6.55,9.88-6.55,15.8v171.01c0,7.23-5.86,13.08-13.08,13.08H249.26
					c-5.93,0-11.61,2.35-15.8,6.55l-8.48,8.48c-4.79,4.79-1.4,12.97,5.37,12.97h217.92c7.23,0,13.08-5.86,13.08-13.08V232.53
					C461.35,225.76,453.17,222.37,448.38,227.16z" fill="#f60838"/>
                    <path class="st0" d="M30.8,249.9c4.19-4.19,6.55-9.88,6.55-15.8l0-181.48c0-7.23,5.86-13.08,13.08-13.08h181.48
					c5.93,0,11.61-2.35,15.8-6.55l8.48-8.48c4.79-4.79,1.4-12.97-5.37-12.97H22.43c-7.23,0-13.08,5.86-13.08,13.08l0,228.39
					c0,6.77,8.18,10.16,12.97,5.37L30.8,249.9z" fill="#f60838"/>
                </g>
            </g>
            <g>
                <path class="st0" d="M143.51,285.26l-2.13-2.12c-3.48-3.47-9.13-3.47-12.61,0l-99.59,99.17c-3.48,3.47-3.48,9.09,0,12.56
				l2.13,2.12c3.48,3.47,9.13,3.47,12.61,0l99.59-99.17C146.99,294.35,146.99,288.73,143.51,285.26z" fill="white"/>
                <path class="st0" d="M151.05,322.87l-2.13-2.12c-3.48-3.47-9.13-3.47-12.61,0L5.71,450.8c-3.48,3.47-3.48,9.09,0,12.56l2.13,2.12
				c3.48,3.47,9.13,3.47,12.61,0l130.61-130.05C154.53,331.96,154.53,326.34,151.05,322.87z" fill="white"/>
                <path class="st0" d="M189.04,330.34l-2.13-2.12c-3.48-3.47-9.13-3.47-12.61,0l-99.59,99.17c-3.48,3.47-3.48,9.09,0,12.56
				l2.13,2.12c3.48,3.47,9.13,3.47,12.61,0l99.59-99.17C192.52,339.43,192.52,333.8,189.04,330.34z" fill="white"/>
                <path class="st0" d="M273.15,320.32l3.48-44.53l42.18-29.22c71.47-49.6,123.59-123.86,142.45-206.33
				c0.45-2.1,0.93-4.24,1.38-6.35l1.76-8.45c0.93-4.45,1.66-9.8,1.21-14.45c-0.24-2.59-2.35-4.76-4.93-4.93
				c-4.66-0.45-10,0.28-14.52,1.21l-8.38,1.76c-2.17,0.45-4.24,0.86-6.35,1.38C348.93,29.24,274.7,81.39,225.1,152.86l-29.28,42.18
				l-44.46,3.48c-4.86,0.66-9.14,3.97-11.14,8.52l-11.66,26.84c-2.62,6.07-0.48,12.69,5.1,15.38l22.01,3.59l-3.62,5.35
				c-2.66,3.76-2.41,8.62,0.52,11.62l24.66,24.59l24.63,24.7c3,2.93,7.8,3.17,11.62,0.52l5.31-3.66l3.59,22.08
				c2.66,5.48,9.35,7.69,15.42,5.07l26.84-11.66C269.18,329.46,272.49,325.19,273.15,320.32z M299.48,171.94
				c-15.69-15.69-15.69-41.12,0-56.81c15.69-15.69,41.12-15.69,56.81,0s15.69,41.12,0,56.81S315.17,187.63,299.48,171.94z" fill="white"/>
            </g>
        </g>
        <path class="st0" d="M914.19,334.5c-18.23,0-33.14,14.92-33.14,33.16c0,18.23,14.91,33.16,33.14,33.16
		c18.25,0,33.16-14.93,33.16-33.16C947.35,349.41,932.45,334.5,914.19,334.5z" fill="white"/>
        <path class="st0" d="M779.12,329.19h-16.75v36.64h16.75c10.44,0,15.08-10.61,15.08-17.73C794.21,341.3,789.73,329.19,779.12,329.19
		z" fill="white"/>
        <path class="st0" d="M1018.38,264.56H561c-6.02,0-10.73,4.71-10.73,10.73v177.24c0,6.02,4.71,11,10.73,11h457.38
		c6.02,0,10.73-4.97,10.73-11V275.29C1029.11,269.27,1024.4,264.56,1018.38,264.56z M660.95,390.37h-18.41v40.28h-31.5v-126h49.91
		c26.53,0,44.93,19.56,44.93,43.44C705.88,372.46,687.48,390.37,660.95,390.37z M792.89,430.65l-23.38-40.28h-7.13v40.28h-31.5v-126
		h49.91c26.53,0,44.92,19.56,44.92,43.44c0,16.57-8.62,30.17-22.37,37.14l26.18,45.42H792.89z M914.19,432.32
		c-35.64,0-64.66-29.02-64.66-64.66S878.55,303,914.19,303c35.67,0,64.66,29.02,64.66,64.66S949.86,432.32,914.19,432.32z" fill="white"/>
        <path class="st0" d="M659.29,329.19h-16.75v36.64h16.75c10.44,0,15.08-10.61,15.08-17.73C674.37,341.3,669.9,329.19,659.29,329.19z
		" fill="white"/>
    </g>
    <g id="rocketWebIcon">
        <g>
            <g>
                <path class="st0" d="M970.28,520.2l-17.06,17.06c-8.43,8.43-13.16,19.86-13.16,31.78v343.9c0,14.53-11.78,26.31-26.31,26.31
				h-343.9c-11.92,0-23.35,4.74-31.78,13.16L521,969.49c-9.62,9.62-2.81,26.08,10.8,26.08h438.24c14.53,0,26.31-11.78,26.31-26.31
				V531.01C996.35,517.4,979.9,510.58,970.28,520.2z" fill="white"/>
                <path class="st0" d="M130.5,565.94c8.43-8.43,13.16-19.86,13.16-31.78l0-364.97c0-14.53,11.78-26.31,26.31-26.31h364.97
				c11.92,0,23.35-4.73,31.78-13.16l17.06-17.06c9.62-9.62,2.81-26.08-10.8-26.08H113.68c-14.53,0-26.31,11.78-26.31,26.31l0,459.31
				c0,13.61,16.45,20.42,26.08,10.8L130.5,565.94z" fill="white"/>
            </g>
        </g>
        <g>
            <path class="st0" d="M357.17,637.06l-4.28-4.26c-7-6.97-18.36-6.97-25.36,0L127.24,832.22c-7,6.97-7,18.28,0,25.25l4.28,4.26
			c7,6.97,18.36,6.97,25.36,0l200.28-199.43C364.17,655.34,364.17,644.03,357.17,637.06z" fill="white"/>
            <path class="st0" d="M372.33,712.69l-4.28-4.26c-7-6.97-18.36-6.97-25.36,0L80.04,969.96c-7,6.97-7,18.28,0,25.25l4.28,4.26
			c7,6.97,18.36,6.97,25.36,0l262.66-261.53C379.34,730.97,379.34,719.66,372.33,712.69z" fill="white"/>
            <path class="st0" d="M448.73,727.71l-4.28-4.26c-7-6.97-18.36-6.97-25.36,0L218.81,922.87c-7,6.97-7,18.28,0,25.25l4.28,4.26
			c7,6.97,18.36,6.97,25.36,0l200.28-199.43C455.74,745.98,455.74,734.68,448.73,727.71z" fill="white"/>
            <path class="st0" d="M617.88,707.56l7.01-89.55l84.84-58.75c143.73-99.75,248.54-249.09,286.48-414.95
			c0.9-4.23,1.87-8.53,2.77-12.76l3.54-16.99c1.87-8.95,3.33-19.7,2.43-29.06c-0.49-5.2-4.72-9.57-9.92-9.92
			c-9.36-0.9-20.12,0.55-29.2,2.43l-16.86,3.54c-4.37,0.9-8.53,1.73-12.76,2.77C770.28,122.18,621,227.06,521.25,370.79
			l-58.89,84.83l-89.41,7.01c-9.78,1.32-18.38,7.98-22.41,17.13l-23.45,53.97c-5.27,12.21-0.97,25.53,10.27,30.94l44.26,7.21
			l-7.28,10.75c-5.34,7.56-4.86,17.34,1.04,23.38l49.6,49.46l49.53,49.67c6.03,5.9,15.68,6.38,23.38,1.04l10.68-7.35l7.21,44.39
			c5.34,11.03,18.8,15.47,31.01,10.2l53.97-23.45C609.9,725.95,616.56,717.34,617.88,707.56z M670.84,409.16
			c-31.55-31.55-31.55-82.7,0-114.25s82.7-31.55,114.25,0s31.55,82.7,0,114.25S702.38,440.71,670.84,409.16z" fill="white"/>
        </g>
    </g>
</svg>


